<?xml version="1.0" encoding="UTF-8"?>
<svg width="121px" height="42px" viewBox="0 0 121 42" version="1.1" xmlns="http://www.w3.org/2000/svg" xmlns:xlink="http://www.w3.org/1999/xlink">
    <!-- Generator: Sketch 52.4 (67378) - http://www.bohemiancoding.com/sketch -->
    <title>Group 44</title>
    <desc>Created with Sketch.</desc>
    <g id="Symbols" stroke="none" stroke-width="1" fill="none" fill-rule="evenodd">
        <g id="Footer" transform="translate(-1147.000000, -186.000000)">
            <g id="Group-26">
                <g id="Group-22">
                    <g id="Group-25" transform="translate(1146.000000, 52.000000)">
                        <g id="Group-7" transform="translate(2.000000, 135.000000)">
                            <g id="Group-44" transform="translate(0.000000, 0.000000)">
                                <path d="M109.233081,0 L9.45794595,0 C9.09145946,0 8.7347027,0 8.37145946,0.00324324324 C8.06659459,0.00324324324 7.76497297,0.00972972973 7.46010811,0.0162162162 C6.79848649,0.0324324324 6.13037838,0.0713513514 5.472,0.191351351 C4.80713514,0.304864865 4.19091892,0.505945946 3.58767568,0.810810811 C2.99416216,1.11567568 2.4492973,1.51135135 1.98227027,1.98162162 C1.50551351,2.45189189 1.11308108,2.99351351 0.811459459,3.59027027 C0.503351351,4.19351351 0.308756757,4.81297297 0.192,5.47783784 C0.072,6.13297297 0.0330810811,6.79783784 0.0136216216,7.4627027 C0.00713513514,7.76756757 0.00389189189,8.07243243 0.000648648649,8.37405405 L0.000648648649,9.4572973 L0.000648648649,30.2172973 L0.000648648649,31.3005405 C0.00389189189,31.6086486 0.00713513514,31.907027 0.0136216216,32.2151351 C0.0330810811,32.88 0.072,33.5448649 0.192,34.2 C0.308756757,34.8648649 0.503351351,35.4875676 0.811459459,36.0908108 C1.11308108,36.6810811 1.50551351,37.2259459 1.98227027,37.6897297 C2.4492973,38.1632432 2.99416216,38.5589189 3.58767568,38.8605405 C4.19091892,39.1686486 4.80713514,39.3664865 5.472,39.4832432 C6.13037838,39.6032432 6.79848649,39.6421622 7.46010811,39.6616216 C7.76497297,39.6681081 8.06659459,39.6713514 8.37145946,39.6713514 L9.45794595,39.6713514 L109.233081,39.6713514 L110.306595,39.6713514 C110.611459,39.6713514 110.919568,39.6681081 111.224432,39.6616216 C111.889297,39.6421622 112.554162,39.6032432 113.206054,39.4832432 C113.870919,39.3664865 114.487135,39.1686486 115.100108,38.8605405 C115.690378,38.5589189 116.235243,38.1632432 116.705514,37.6897297 C117.175784,37.2259459 117.568216,36.6810811 117.876324,36.0908108 C118.177946,35.4875676 118.379027,34.8648649 118.489297,34.2 C118.612541,33.5448649 118.648216,32.88 118.674162,32.2151351 C118.677405,31.907027 118.677405,31.6086486 118.677405,31.3005405 C118.683892,30.9405405 118.683892,30.5805405 118.683892,30.2172973 L118.683892,9.4572973 C118.683892,9.09405405 118.683892,8.73405405 118.677405,8.37405405 C118.677405,8.07243243 118.677405,7.76756757 118.674162,7.4627027 C118.648216,6.79783784 118.612541,6.13297297 118.489297,5.47783784 C118.379027,4.81297297 118.177946,4.19351351 117.876324,3.59027027 C117.568216,2.99351351 117.175784,2.45189189 116.705514,1.98162162 C116.235243,1.51135135 115.690378,1.11567568 115.100108,0.810810811 C114.487135,0.505945946 113.870919,0.304864865 113.206054,0.191351351 C112.554162,0.0713513514 111.889297,0.0324324324 111.224432,0.0162162162 C110.919568,0.00972972973 110.611459,0.00324324324 110.306595,0.00324324324 C109.953081,0 109.589838,0 109.233081,0" id="Fill-1" stroke="#FFFFFF"></path>
                                <path d="M24.792,19.7267027 C24.8211892,23.1288649 27.7660541,24.251027 27.8017297,24.264 C27.7855135,24.3418378 27.3411892,25.8856216 26.2384865,27.4521081 C25.3141622,28.8337297 24.3476757,30.1829189 22.8136216,30.2056216 C21.3217297,30.2412973 20.819027,29.3299459 19.1098378,29.3299459 C17.3811892,29.3299459 16.8460541,30.1829189 15.4157838,30.2412973 C13.9530811,30.2964324 12.8374054,28.7688649 11.8806486,27.4002162 C9.97037838,24.611027 8.48172973,19.5353514 10.4763243,16.0812973 C11.4428108,14.3883243 13.2071351,13.2953514 15.0914595,13.2661622 C16.5541622,13.236973 17.9130811,14.2553514 18.8114595,14.2553514 C19.6968649,14.2553514 21.3736216,13.0358919 23.1055135,13.2175135 C23.832,13.2402162 25.8914595,13.5061622 27.2211892,15.4456216 C27.1141622,15.5104865 24.7660541,16.8888649 24.792,19.7267027 Z M21.9749189,11.3831351 C21.1705946,12.3301622 19.8862703,13.0534054 18.6376216,12.9625946 C18.4722162,11.6847568 19.1078919,10.3225946 19.8149189,9.49556757 C20.616,8.55178378 22.0105946,7.83178378 23.123027,7.78313514 C23.268973,9.11286486 22.7435676,10.4198919 21.9749189,11.3831351 Z M37.7474595,25.3816216 L41.4674595,25.3816216 L39.635027,19.9783784 L39.5831351,19.9783784 L37.7474595,25.3816216 Z M41.9571892,26.9189189 L37.260973,26.9189189 L36.1323243,30.2464865 L34.1442162,30.2464865 L38.5907027,17.9318919 L40.6566486,17.9318919 L45.1031351,30.2464865 L43.0825946,30.2464865 L41.9571892,26.9189189 Z M52.8136216,25.7571892 C52.8136216,23.9377297 51.8730811,22.7442162 50.4395676,22.7442162 C49.032,22.7442162 48.084973,23.9636757 48.084973,25.7571892 C48.084973,27.5669189 49.032,28.7798919 50.4395676,28.7798919 C51.8730811,28.7798919 52.8136216,27.5928649 52.8136216,25.7571892 Z M54.7076757,25.7571892 C54.7076757,28.5463784 53.2157838,30.3398919 50.9617297,30.3398919 C49.6806486,30.3398919 48.6655135,29.7690811 48.1368649,28.7701622 L48.0914595,28.7701622 L48.0914595,33.2166486 L46.2492973,33.2166486 L46.2492973,21.2685405 L48.0330811,21.2685405 L48.0330811,22.7604324 L48.0687568,22.7604324 C48.5811892,21.7971892 49.6741622,21.1744865 50.9260541,21.1744865 C53.2060541,21.1744865 54.7076757,22.9744865 54.7076757,25.7571892 Z M62.6967568,25.7571892 C62.6967568,23.9377297 61.7562162,22.7442162 60.3227027,22.7442162 C58.9151351,22.7442162 57.9681081,23.9636757 57.9681081,25.7571892 C57.9681081,27.5669189 58.9151351,28.7798919 60.3227027,28.7798919 C61.7562162,28.7798919 62.6967568,27.5928649 62.6967568,25.7571892 Z M64.5908108,25.7571892 C64.5908108,28.5463784 63.0989189,30.3398919 60.8448649,30.3398919 C59.5637838,30.3398919 58.5486486,29.7690811 58.02,28.7701622 L57.9745946,28.7701622 L57.9745946,33.2166486 L56.1324324,33.2166486 L56.1324324,21.2685405 L57.9162162,21.2685405 L57.9162162,22.7604324 L57.9518919,22.7604324 C58.4643243,21.7971892 59.5540541,21.1744865 60.8091892,21.1744865 C63.0891892,21.1744865 64.5908108,22.9744865 64.5908108,25.7571892 Z M71.123027,26.8148108 C71.2592432,28.0375135 72.4462703,28.8385946 74.0678919,28.8385946 C75.6214054,28.8385946 76.7403243,28.0375135 76.7403243,26.9348108 C76.7403243,25.9780541 76.0657297,25.4072432 74.4668108,25.0148108 L72.8711351,24.6288649 C70.6105946,24.084 69.5597838,23.0267027 69.5597838,21.311027 C69.5597838,19.1834595 71.4116757,17.724 74.0419459,17.724 C76.6462703,17.724 78.4300541,19.1834595 78.4884324,21.311027 L76.6268108,21.311027 C76.5165405,20.0818378 75.5014054,19.3391351 74.016,19.3391351 C72.5305946,19.3391351 71.5154595,20.0883243 71.5154595,21.1812973 C71.5154595,22.0537297 72.1641081,22.5661622 73.7532973,22.9585946 L75.108973,23.2894054 C77.6354595,23.8894054 78.6862703,24.9045405 78.6862703,26.7045405 C78.6862703,29.0072432 76.8505946,30.4504865 73.9316757,30.4504865 C71.2008649,30.4504865 69.3554595,29.0429189 69.2354595,26.8148108 L71.123027,26.8148108 Z M82.6644324,19.1419459 L82.6644324,21.2662703 L84.3736216,21.2662703 L84.3736216,22.7257297 L82.6644324,22.7257297 L82.6644324,27.6781622 C82.6644324,28.4468108 83.004973,28.8035676 83.7574054,28.8035676 C83.9455135,28.8035676 84.2438919,28.7776216 84.3638919,28.7614054 L84.3638919,30.2143784 C84.1595676,30.263027 83.7509189,30.2987027 83.339027,30.2987027 C81.5228108,30.2987027 80.8125405,29.6143784 80.8125405,27.8727568 L80.8125405,22.7257297 L79.5055135,22.7257297 L79.5055135,21.2662703 L80.8125405,21.2662703 L80.8125405,19.1419459 L82.6644324,19.1419459 Z M92.0007568,25.7571892 C92.0007568,23.8177297 91.1121081,22.6761081 89.6202162,22.6761081 C88.1250811,22.6761081 87.2364324,23.8274595 87.2364324,25.7571892 C87.2364324,27.7031351 88.1250811,28.8382703 89.6202162,28.8382703 C91.1121081,28.8382703 92.0007568,27.7031351 92.0007568,25.7571892 Z M85.3585946,25.7571892 C85.3585946,22.9323243 87.0256216,21.155027 89.6202162,21.155027 C92.2212973,21.155027 93.8785946,22.9323243 93.8785946,25.7571892 C93.8785946,28.5917838 92.231027,30.3593514 89.6202162,30.3593514 C87.0061622,30.3593514 85.3585946,28.5917838 85.3585946,25.7571892 Z M95.3983784,21.2672432 L97.1562162,21.2672432 L97.1562162,22.7948108 L97.1983784,22.7948108 C97.4805405,21.7796757 98.3010811,21.1731892 99.3583784,21.1731892 C99.6243243,21.1731892 99.8448649,21.2088649 99.9908108,21.2412973 L99.9908108,22.9667027 C99.8448649,22.9050811 99.5205405,22.8531892 99.1637838,22.8531892 C97.9767568,22.8531892 97.2405405,23.6575135 97.2405405,24.9191351 L97.2405405,30.2477838 L95.3983784,30.2477838 L95.3983784,21.2672432 Z M102.257838,24.9291892 L106.746486,24.9291892 C106.704324,23.5540541 105.825405,22.6491892 104.544324,22.6491892 C103.272973,22.6491892 102.351892,23.5735135 102.257838,24.9291892 Z M108.488108,27.6081081 C108.241622,29.2394595 106.652432,30.3583784 104.622162,30.3583784 C102.011351,30.3583784 100.38973,28.607027 100.38973,25.7983784 C100.38973,22.9832432 102.017838,21.1572973 104.544324,21.1572973 C107.028649,21.1572973 108.591892,22.8632432 108.591892,25.5843243 L108.591892,26.2167568 L102.248108,26.2167568 L102.248108,26.3302703 C102.248108,27.8643243 103.214595,28.872973 104.664324,28.872973 C105.689189,28.872973 106.493514,28.3864865 106.74,27.6081081 L108.488108,27.6081081 Z M36.2983784,13.7406486 L37.4140541,13.7406486 C38.652973,13.7406486 39.3664865,12.9687568 39.3664865,11.6130811 C39.3664865,10.2736216 38.64,9.49524324 37.4140541,9.49524324 L36.2983784,9.49524324 L36.2983784,13.7406486 Z M37.5178378,8.65848649 C39.2724324,8.65848649 40.3005405,9.73848649 40.3005405,11.6001081 C40.3005405,13.4909189 39.2789189,14.5774054 37.5178378,14.5774054 L35.3805405,14.5774054 L35.3805405,8.65848649 L37.5178378,8.65848649 Z M44.6455135,12.3424865 C44.6455135,11.376 44.2109189,10.8084324 43.4487568,10.8084324 C42.6801081,10.8084324 42.2487568,11.376 42.2487568,12.3424865 C42.2487568,13.3187027 42.6801081,13.8797838 43.4487568,13.8797838 C44.2109189,13.8797838 44.6455135,13.3154595 44.6455135,12.3424865 Z M41.3406486,12.3424865 C41.3406486,10.9024865 42.144973,10.0268108 43.4487568,10.0268108 C44.7492973,10.0268108 45.5536216,10.9024865 45.5536216,12.3424865 C45.5536216,13.788973 44.7525405,14.6646486 43.4487568,14.6646486 C42.1384865,14.6646486 41.3406486,13.788973 41.3406486,12.3424865 Z M51.1514595,14.5774054 L50.2368649,14.5774054 L49.3125405,11.2887568 L49.2444324,11.2887568 L48.3265946,14.5774054 L47.4184865,14.5774054 L46.1892973,10.1114595 L47.0811892,10.1114595 L47.8822703,13.5201081 L47.9471351,13.5201081 L48.8682162,10.1114595 L49.7114595,10.1114595 L50.6292973,13.5201081 L50.7006486,13.5201081 L51.4952432,10.1114595 L52.3774054,10.1114595 L51.1514595,14.5774054 Z M53.412973,10.1114595 L54.2627027,10.1114595 L54.2627027,10.8217297 L54.3275676,10.8217297 C54.5448649,10.3255135 54.9891892,10.0238919 55.6605405,10.0238919 C56.6562162,10.0238919 57.2075676,10.6238919 57.2075676,11.6876757 L57.2075676,14.5774054 L56.3254054,14.5774054 L56.3254054,11.9082162 C56.3254054,11.1914595 56.0140541,10.8314595 55.3621622,10.8314595 C54.7102703,10.8314595 54.2951351,11.2692973 54.2951351,11.9633514 L54.2951351,14.5774054 L53.412973,14.5774054 L53.412973,10.1114595 Z M58.6118919,14.5796757 L58.6118919,8.36886486 L59.4940541,8.36886486 L59.4940541,14.5796757 L58.6118919,14.5796757 Z M64.0229189,12.3424865 C64.0229189,11.376 63.5883243,10.8084324 62.8261622,10.8084324 C62.0575135,10.8084324 61.6261622,11.376 61.6261622,12.3424865 C61.6261622,13.3187027 62.0575135,13.8797838 62.8261622,13.8797838 C63.5883243,13.8797838 64.0229189,13.3154595 64.0229189,12.3424865 Z M60.7180541,12.3424865 C60.7180541,10.9024865 61.5223784,10.0268108 62.8261622,10.0268108 C64.1267027,10.0268108 64.931027,10.9024865 64.931027,12.3424865 C64.931027,13.788973 64.1299459,14.6646486 62.8261622,14.6646486 C61.5158919,14.6646486 60.7180541,13.788973 60.7180541,12.3424865 Z M68.7285405,12.9327568 L68.7285405,12.5597838 L67.6388108,12.6278919 C67.0225946,12.6700541 66.7436757,12.8808649 66.7436757,13.2732973 C66.7436757,13.6754595 67.0939459,13.908973 67.5707027,13.908973 C68.2355676,13.908973 68.7285405,13.4873514 68.7285405,12.9327568 Z M65.8582703,13.3154595 C65.8582703,12.5111351 66.455027,12.0473514 67.5188108,11.9824865 L68.7285405,11.9111351 L68.7285405,11.5251892 C68.7285405,11.0549189 68.4171892,10.788973 67.8139459,10.788973 C67.320973,10.788973 66.9804324,10.9673514 66.8831351,11.2851892 L66.0301622,11.2851892 C66.120973,10.5165405 66.840973,10.0235676 67.8561081,10.0235676 C68.975027,10.0235676 69.6074595,10.5814054 69.6074595,11.5251892 L69.6074595,14.5770811 L68.7577297,14.5770811 L68.7577297,13.9511351 L68.6863784,13.9511351 C68.4204324,14.3954595 67.9339459,14.6516757 67.3469189,14.6516757 C66.4842162,14.6516757 65.8582703,14.1295135 65.8582703,13.3154595 Z M71.675027,12.3424865 C71.675027,13.2895135 72.1225946,13.8603243 72.8685405,13.8603243 C73.6112432,13.8603243 74.0717838,13.283027 74.0717838,12.3457297 C74.0717838,11.4149189 73.608,10.8278919 72.8685405,10.8278919 C72.1258378,10.8278919 71.675027,11.4019459 71.675027,12.3424865 Z M70.7636757,12.3424865 C70.7636757,10.9316757 71.4901622,10.0365405 72.6188108,10.0365405 C73.2285405,10.0365405 73.7474595,10.3284324 73.9874595,10.8214054 L74.0523243,10.8214054 L74.0523243,8.36951351 L74.9344865,8.36951351 L74.9344865,14.5770811 L74.0912432,14.5770811 L74.0912432,13.8732973 L74.0198919,13.8732973 C73.7539459,14.3597838 73.235027,14.6516757 72.6188108,14.6516757 C71.4836757,14.6516757 70.7636757,13.7565405 70.7636757,12.3424865 Z M81.8876757,12.3424865 C81.8876757,11.376 81.4530811,10.8084324 80.6909189,10.8084324 C79.9222703,10.8084324 79.4909189,11.376 79.4909189,12.3424865 C79.4909189,13.3187027 79.9222703,13.8797838 80.6909189,13.8797838 C81.4530811,13.8797838 81.8876757,13.3154595 81.8876757,12.3424865 Z M78.5828108,12.3424865 C78.5828108,10.9024865 79.3871351,10.0268108 80.6909189,10.0268108 C81.9914595,10.0268108 82.7957838,10.9024865 82.7957838,12.3424865 C82.7957838,13.788973 81.9947027,14.6646486 80.6909189,14.6646486 C79.3806486,14.6646486 78.5828108,13.788973 78.5828108,12.3424865 Z M83.976973,10.1114595 L84.8267027,10.1114595 L84.8267027,10.8217297 L84.8915676,10.8217297 C85.1088649,10.3255135 85.5531892,10.0238919 86.2245405,10.0238919 C87.2202162,10.0238919 87.7683243,10.6238919 87.7683243,11.6876757 L87.7683243,14.5774054 L86.8894054,14.5774054 L86.8894054,11.9082162 C86.8894054,11.1914595 86.5780541,10.8314595 85.9261622,10.8314595 C85.2742703,10.8314595 84.8591351,11.2692973 84.8591351,11.9633514 L84.8591351,14.5774054 L83.976973,14.5774054 L83.976973,10.1114595 Z M92.7502703,8.99967568 L92.7502703,10.1315676 L93.7167568,10.1315676 L93.7167568,10.8742703 L92.7502703,10.8742703 L92.7502703,13.1704865 C92.7502703,13.6375135 92.9416216,13.8418378 93.3827027,13.8418378 C93.5189189,13.8418378 93.5935135,13.8353514 93.7167568,13.8223784 L93.7167568,14.5585946 C93.5740541,14.5812973 93.4086486,14.6007568 93.2367568,14.6007568 C92.2572973,14.6007568 91.8681081,14.256973 91.8681081,13.3975135 L91.8681081,10.8742703 L91.1578378,10.8742703 L91.1578378,10.1315676 L91.8681081,10.1315676 L91.8681081,8.99967568 L92.7502703,8.99967568 Z M94.9219459,8.36789189 L95.7943784,8.36789189 L95.7943784,10.8295135 L95.8657297,10.8295135 C96.083027,10.3268108 96.5532973,10.0284324 97.2278919,10.0284324 C98.1781622,10.0284324 98.7651892,10.6316757 98.7651892,11.6954595 L98.7651892,14.5787027 L97.883027,14.5787027 L97.883027,11.9127568 C97.883027,11.1992432 97.5522162,10.836 96.9262703,10.836 C96.2062703,10.836 95.8041081,11.2932973 95.8041081,11.9678919 L95.8041081,14.5787027 L94.9219459,14.5787027 L94.9219459,8.36789189 Z M100.803892,11.9325405 L103.061189,11.9325405 C103.038486,11.232 102.613622,10.7747027 101.96173,10.7747027 C101.309838,10.7747027 100.852541,11.2352432 100.803892,11.9325405 Z M103.904432,13.3725405 C103.703351,14.1703784 102.989838,14.6633514 101.968216,14.6633514 C100.690378,14.6633514 99.9055135,13.7876757 99.9055135,12.3574054 C99.9055135,10.9303784 100.706595,10.0255135 101.964973,10.0255135 C103.207135,10.0255135 103.956324,10.8752432 103.956324,12.2763243 L103.956324,12.5844324 L100.803892,12.5844324 L100.803892,12.6330811 C100.833081,13.4179459 101.290378,13.9141622 101.994162,13.9141622 C102.526054,13.9141622 102.892541,13.7195676 103.054703,13.3725405 L103.904432,13.3725405 Z" id="Combined-Shape" fill="#FFFFFF"></path>
                            </g>
                        </g>
                    </g>
                </g>
            </g>
        </g>
    </g>
</svg>