<?xml version="1.0" encoding="UTF-8"?>
<svg width="175px" height="474px" viewBox="0 0 175 474" version="1.1" xmlns="http://www.w3.org/2000/svg" xmlns:xlink="http://www.w3.org/1999/xlink">
    <!-- Generator: Sketch 52.4 (67378) - http://www.bohemiancoding.com/sketch -->
    <title>Group 4</title>
    <desc>Created with Sketch.</desc>
    <g id="Legacy" stroke="none" stroke-width="1" fill="none" fill-rule="evenodd" opacity="0.7">
        <g id="Job-description" transform="translate(-1158.000000, -140.000000)" fill="#FFFFFF">
            <g id="Group-4" transform="translate(1158.000000, 140.000000)">
                <path d="M275.8877,274.0031 C276.2807,274.0031 276.6657,274.1631 276.9437,274.4411 C277.2227,274.7191 277.3817,275.1041 277.3817,275.4971 C277.3817,275.8901 277.2227,276.2751 276.9437,276.5531 C276.6657,276.8321 276.2807,276.9911 275.8877,276.9911 C275.4937,276.9911 275.1097,276.8321 274.8317,276.5531 C274.5527,276.2751 274.3937,275.8901 274.3937,275.4971 C274.3937,275.1041 274.5527,274.7191 274.8307,274.4411 C275.1097,274.1631 275.4937,274.0031 275.8877,274.0031 Z M-108.98,274.0031 C-108.155,274.0031 -107.486,274.6721 -107.486,275.4971 C-107.486,276.3221 -108.155,276.9911 -108.98,276.9911 C-109.805,276.9911 -110.474,276.3221 -110.474,275.4971 C-110.474,274.6721 -109.805,274.0031 -108.98,274.0031 Z M83.4536,274.0031 C84.2786,274.0031 84.9476,274.6721 84.9476,275.4971 C84.9476,276.3221 84.2786,276.9911 83.4536,276.9911 C82.6286,276.9911 81.9596,276.3221 81.9596,275.4971 C81.9596,274.6721 82.6286,274.0031 83.4536,274.0031 Z M-151.7432,274.0031 C-150.9182,274.0031 -150.2492,274.6721 -150.2492,275.4971 C-150.2492,276.3221 -150.9182,276.9911 -151.7432,276.9911 C-152.5682,276.9911 -153.2372,276.3221 -153.2372,275.4971 C-153.2372,274.6721 -152.5682,274.0031 -151.7432,274.0031 Z M126.2165,274.0031 C127.0415,274.0031 127.7105,274.6721 127.7105,275.4971 C127.7105,276.3221 127.0415,276.9911 126.2165,276.9911 C125.3915,276.9911 124.7225,276.3221 124.7225,275.4971 C124.7225,274.6721 125.3915,274.0031 126.2165,274.0031 Z M-130.3616,274.0031 C-129.5366,274.0031 -128.8676,274.6721 -128.8676,275.4971 C-128.8676,276.3221 -129.5366,276.9911 -130.3616,276.9911 C-131.1866,276.9911 -131.8556,276.3221 -131.8556,275.4971 C-131.8556,274.6721 -131.1866,274.0031 -130.3616,274.0031 Z M147.5981,274.0031 C148.4231,274.0031 149.0921,274.6721 149.0921,275.4971 C149.0921,276.3221 148.4231,276.9911 147.5981,276.9911 C146.7731,276.9911 146.1041,276.3221 146.1041,275.4971 C146.1041,274.6721 146.7731,274.0031 147.5981,274.0031 Z M62.072,274.0031 C62.897,274.0031 63.566,274.6721 63.566,275.4971 C63.566,276.3221 62.897,276.9911 62.072,276.9911 C61.247,276.9911 60.578,276.3221 60.578,275.4971 C60.578,274.6721 61.247,274.0031 62.072,274.0031 Z M-66.217,274.0031 C-65.392,274.0031 -64.723,274.6721 -64.723,275.4971 C-64.723,276.3221 -65.392,276.9911 -66.217,276.9911 C-67.042,276.9911 -67.711,276.3221 -67.711,275.4971 C-67.711,274.6721 -67.042,274.0031 -66.217,274.0031 Z M104.835,274.0031 C105.66,274.0031 106.329,274.6721 106.329,275.4971 C106.329,276.3221 105.66,276.9911 104.835,276.9911 C104.01,276.9911 103.341,276.3221 103.341,275.4971 C103.341,274.6721 104.01,274.0031 104.835,274.0031 Z M-87.5986,274.0031 C-86.7736,274.0031 -86.1046,274.6721 -86.1046,275.4971 C-86.1046,276.3221 -86.7736,276.9911 -87.5986,276.9911 C-88.4236,276.9911 -89.0926,276.3221 -89.0926,275.4971 C-89.0926,274.6721 -88.4236,274.0031 -87.5986,274.0031 Z M233.1243,274.0031 C233.9493,274.0031 234.6183,274.6721 234.6183,275.4971 C234.6183,276.3221 233.9493,276.9911 233.1243,276.9911 C232.2993,276.9911 231.6303,276.3221 231.6303,275.4971 C231.6303,274.6721 232.2993,274.0031 233.1243,274.0031 Z M-2.0725,274.0031 C-1.2475,274.0031 -0.5785,274.6721 -0.5785,275.4971 C-0.5785,276.3221 -1.2475,276.9911 -2.0725,276.9911 C-2.8975,276.9911 -3.5665,276.3221 -3.5665,275.4971 C-3.5665,274.6721 -2.8975,274.0031 -2.0725,274.0031 Z M-173.1245,274.0031 C-172.2995,274.0031 -171.6305,274.6721 -171.6305,275.4971 C-171.6305,276.3221 -172.2995,276.9911 -173.1245,276.9911 C-173.9495,276.9911 -174.6185,276.3221 -174.6185,275.4971 C-174.6185,274.6721 -173.9495,274.0031 -173.1245,274.0031 Z M-44.8355,274.0031 C-44.0105,274.0031 -43.3415,274.6721 -43.3415,275.4971 C-43.3415,276.3221 -44.0105,276.9911 -44.8355,276.9911 C-45.6605,276.9911 -46.3295,276.3221 -46.3295,275.4971 C-46.3295,274.6721 -45.6605,274.0031 -44.8355,274.0031 Z M211.7427,274.0031 C212.5677,274.0031 213.2367,274.6721 213.2367,275.4971 C213.2367,276.3221 212.5677,276.9911 211.7427,276.9911 C210.9177,276.9911 210.2487,276.3221 210.2487,275.4971 C210.2487,274.6721 210.9177,274.0031 211.7427,274.0031 Z M254.5059,274.0031 C255.3309,274.0031 255.9999,274.6721 255.9999,275.4971 C255.9999,276.3221 255.3309,276.9911 254.5059,276.9911 C253.6809,276.9911 253.0119,276.3221 253.0119,275.4971 C253.0119,274.6721 253.6809,274.0031 254.5059,274.0031 Z M168.9797,274.0031 C169.8047,274.0031 170.4737,274.6721 170.4737,275.4971 C170.4737,276.3221 169.8047,276.9911 168.9797,276.9911 C168.1547,276.9911 167.4857,276.3221 167.4857,275.4971 C167.4857,274.6721 168.1547,274.0031 168.9797,274.0031 Z M-23.4541,274.0031 C-22.6291,274.0031 -21.9601,274.6721 -21.9601,275.4971 C-21.9601,276.3221 -22.6291,276.9911 -23.4541,276.9911 C-24.2791,276.9911 -24.9481,276.3221 -24.9481,275.4971 C-24.9481,274.6721 -24.2791,274.0031 -23.4541,274.0031 Z M19.3091,274.0031 C20.1341,274.0031 20.8031,274.6721 20.8031,275.4971 C20.8031,276.3221 20.1341,276.9911 19.3091,276.9911 C18.4841,276.9911 17.8151,276.3221 17.8151,275.4971 C17.8151,274.6721 18.4841,274.0031 19.3091,274.0031 Z M190.3611,274.0031 C191.1861,274.0031 191.8551,274.6721 191.8551,275.4971 C191.8551,276.3221 191.1861,276.9911 190.3611,276.9911 C189.5361,276.9911 188.8671,276.3221 188.8671,275.4971 C188.8671,274.6721 189.5361,274.0031 190.3611,274.0031 Z M40.6904,274.0031 C41.5154,274.0031 42.1844,274.6721 42.1844,275.4971 C42.1844,276.3221 41.5154,276.9911 40.6904,276.9911 C39.8654,276.9911 39.1964,276.3221 39.1964,275.4971 C39.1964,274.6721 39.8654,274.0031 40.6904,274.0031 Z M-194.5059,274.0031 C-194.1129,274.0031 -193.7279,274.1631 -193.4499,274.4411 C-193.1709,274.7191 -193.0119,275.1041 -193.0119,275.4971 C-193.0119,275.8901 -193.1709,276.2751 -193.4499,276.5531 C-193.7279,276.8321 -194.1129,276.9911 -194.5059,276.9911 C-194.8989,276.9911 -195.2839,276.8321 -195.5619,276.5531 C-195.8409,276.2751 -195.9999,275.8901 -195.9999,275.4971 C-195.9999,275.1041 -195.8409,274.7191 -195.5629,274.4411 C-195.2839,274.1631 -194.8989,274.0031 -194.5059,274.0031 Z M275.8877,254.7522 C276.2807,254.7522 276.6657,254.9112 276.9437,255.1902 C277.2227,255.4682 277.3817,255.8532 277.3817,256.2462 C277.3817,256.6392 277.2227,257.0242 276.9437,257.3022 C276.6657,257.5802 276.2807,257.7402 275.8877,257.7402 C275.4937,257.7402 275.1097,257.5802 274.8317,257.3022 C274.5527,257.0242 274.3937,256.6392 274.3937,256.2462 C274.3937,255.8532 274.5527,255.4682 274.8307,255.1902 C275.1097,254.9112 275.4937,254.7522 275.8877,254.7522 Z M40.6904,254.7522 C41.5154,254.7522 42.1844,255.4212 42.1844,256.2462 C42.1844,257.0712 41.5154,257.7402 40.6904,257.7402 C39.8654,257.7402 39.1964,257.0712 39.1964,256.2462 C39.1964,255.4212 39.8654,254.7522 40.6904,254.7522 Z M-108.98,254.7522 C-108.155,254.7522 -107.486,255.4212 -107.486,256.2462 C-107.486,257.0712 -108.155,257.7402 -108.98,257.7402 C-109.805,257.7402 -110.474,257.0712 -110.474,256.2462 C-110.474,255.4212 -109.805,254.7522 -108.98,254.7522 Z M-87.5986,254.7522 C-86.7736,254.7522 -86.1046,255.4212 -86.1046,256.2462 C-86.1046,257.0712 -86.7736,257.7402 -87.5986,257.7402 C-88.4236,257.7402 -89.0926,257.0712 -89.0926,256.2462 C-89.0926,255.4212 -88.4236,254.7522 -87.5986,254.7522 Z M62.072,254.7522 C62.897,254.7522 63.566,255.4212 63.566,256.2462 C63.566,257.0712 62.897,257.7402 62.072,257.7402 C61.247,257.7402 60.578,257.0712 60.578,256.2462 C60.578,255.4212 61.247,254.7522 62.072,254.7522 Z M-2.0725,254.7522 C-1.2475,254.7522 -0.5785,255.4212 -0.5785,256.2462 C-0.5785,257.0712 -1.2475,257.7402 -2.0725,257.7402 C-2.8975,257.7402 -3.5665,257.0712 -3.5665,256.2462 C-3.5665,255.4212 -2.8975,254.7522 -2.0725,254.7522 Z M-23.4541,254.7522 C-22.6291,254.7522 -21.9601,255.4212 -21.9601,256.2462 C-21.9601,257.0712 -22.6291,257.7402 -23.4541,257.7402 C-24.2791,257.7402 -24.9481,257.0712 -24.9481,256.2462 C-24.9481,255.4212 -24.2791,254.7522 -23.4541,254.7522 Z M19.3091,254.7522 C20.1341,254.7522 20.8031,255.4212 20.8031,256.2462 C20.8031,257.0712 20.1341,257.7402 19.3091,257.7402 C18.4841,257.7402 17.8151,257.0712 17.8151,256.2462 C17.8151,255.4212 18.4841,254.7522 19.3091,254.7522 Z M83.4536,254.7522 C84.2786,254.7522 84.9476,255.4212 84.9476,256.2462 C84.9476,257.0712 84.2786,257.7402 83.4536,257.7402 C82.6286,257.7402 81.9596,257.0712 81.9596,256.2462 C81.9596,255.4212 82.6286,254.7522 83.4536,254.7522 Z M126.2165,254.7522 C127.0415,254.7522 127.7105,255.4212 127.7105,256.2462 C127.7105,257.0712 127.0415,257.7402 126.2165,257.7402 C125.3915,257.7402 124.7225,257.0712 124.7225,256.2462 C124.7225,255.4212 125.3915,254.7522 126.2165,254.7522 Z M190.3611,254.7522 C191.1861,254.7522 191.8551,255.4212 191.8551,256.2462 C191.8551,257.0712 191.1861,257.7402 190.3611,257.7402 C189.5361,257.7402 188.8671,257.0712 188.8671,256.2462 C188.8671,255.4212 189.5361,254.7522 190.3611,254.7522 Z M168.9797,254.7522 C169.8047,254.7522 170.4737,255.4212 170.4737,256.2462 C170.4737,257.0712 169.8047,257.7402 168.9797,257.7402 C168.1547,257.7402 167.4857,257.0712 167.4857,256.2462 C167.4857,255.4212 168.1547,254.7522 168.9797,254.7522 Z M-173.1245,254.7522 C-172.2995,254.7522 -171.6305,255.4212 -171.6305,256.2462 C-171.6305,257.0712 -172.2995,257.7402 -173.1245,257.7402 C-173.9495,257.7402 -174.6185,257.0712 -174.6185,256.2462 C-174.6185,255.4212 -173.9495,254.7522 -173.1245,254.7522 Z M-151.7432,254.7522 C-150.9182,254.7522 -150.2492,255.4212 -150.2492,256.2462 C-150.2492,257.0712 -150.9182,257.7402 -151.7432,257.7402 C-152.5682,257.7402 -153.2372,257.0712 -153.2372,256.2462 C-153.2372,255.4212 -152.5682,254.7522 -151.7432,254.7522 Z M-66.217,254.7522 C-65.392,254.7522 -64.723,255.4212 -64.723,256.2462 C-64.723,257.0712 -65.392,257.7402 -66.217,257.7402 C-67.042,257.7402 -67.711,257.0712 -67.711,256.2462 C-67.711,255.4212 -67.042,254.7522 -66.217,254.7522 Z M147.5981,254.7522 C148.4231,254.7522 149.0921,255.4212 149.0921,256.2462 C149.0921,257.0712 148.4231,257.7402 147.5981,257.7402 C146.7731,257.7402 146.1041,257.0712 146.1041,256.2462 C146.1041,255.4212 146.7731,254.7522 147.5981,254.7522 Z M211.7427,254.7522 C212.5677,254.7522 213.2367,255.4212 213.2367,256.2462 C213.2367,257.0712 212.5677,257.7402 211.7427,257.7402 C210.9177,257.7402 210.2487,257.0712 210.2487,256.2462 C210.2487,255.4212 210.9177,254.7522 211.7427,254.7522 Z M233.1243,254.7522 C233.9493,254.7522 234.6183,255.4212 234.6183,256.2462 C234.6183,257.0712 233.9493,257.7402 233.1243,257.7402 C232.2993,257.7402 231.6303,257.0712 231.6303,256.2462 C231.6303,255.4212 232.2993,254.7522 233.1243,254.7522 Z M254.5059,254.7522 C255.3309,254.7522 255.9999,255.4212 255.9999,256.2462 C255.9999,257.0712 255.3309,257.7402 254.5059,257.7402 C253.6809,257.7402 253.0119,257.0712 253.0119,256.2462 C253.0119,255.4212 253.6809,254.7522 254.5059,254.7522 Z M-44.8355,254.7522 C-44.0105,254.7522 -43.3415,255.4212 -43.3415,256.2462 C-43.3415,257.0712 -44.0105,257.7402 -44.8355,257.7402 C-45.6605,257.7402 -46.3295,257.0712 -46.3295,256.2462 C-46.3295,255.4212 -45.6605,254.7522 -44.8355,254.7522 Z M-130.3616,254.7522 C-129.5366,254.7522 -128.8676,255.4212 -128.8676,256.2462 C-128.8676,257.0712 -129.5366,257.7402 -130.3616,257.7402 C-131.1866,257.7402 -131.8556,257.0712 -131.8556,256.2462 C-131.8556,255.4212 -131.1866,254.7522 -130.3616,254.7522 Z M104.835,254.7522 C105.66,254.7522 106.329,255.4212 106.329,256.2462 C106.329,257.0712 105.66,257.7402 104.835,257.7402 C104.01,257.7402 103.341,257.0712 103.341,256.2462 C103.341,255.4212 104.01,254.7522 104.835,254.7522 Z M-194.5059,254.7522 C-194.1129,254.7522 -193.7279,254.9112 -193.4499,255.1902 C-193.1709,255.4682 -193.0119,255.8532 -193.0119,256.2462 C-193.0119,256.6392 -193.1709,257.0242 -193.4499,257.3022 C-193.7279,257.5802 -194.1129,257.7402 -194.5059,257.7402 C-194.8989,257.7402 -195.2839,257.5802 -195.5619,257.3022 C-195.8409,257.0242 -195.9999,256.6392 -195.9999,256.2462 C-195.9999,255.8532 -195.8409,255.4682 -195.5629,255.1902 C-195.2839,254.9112 -194.8989,254.7522 -194.5059,254.7522 Z M275.8877,235.5022 C276.2807,235.5022 276.6657,235.6612 276.9437,235.9402 C277.2227,236.2182 277.3817,236.6032 277.3817,236.9962 C277.3817,237.3892 277.2227,237.7742 276.9437,238.0522 C276.6657,238.3302 276.2807,238.4902 275.8877,238.4902 C275.4937,238.4902 275.1097,238.3302 274.8317,238.0522 C274.5527,237.7742 274.3937,237.3892 274.3937,236.9962 C274.3937,236.6032 274.5527,236.2182 274.8307,235.9402 C275.1097,235.6612 275.4937,235.5022 275.8877,235.5022 Z M233.1243,235.5022 C233.9493,235.5022 234.6183,236.1712 234.6183,236.9962 C234.6183,237.8212 233.9493,238.4902 233.1243,238.4902 C232.2993,238.4902 231.6303,237.8212 231.6303,236.9962 C231.6303,236.1712 232.2993,235.5022 233.1243,235.5022 Z M211.7427,235.5022 C212.5677,235.5022 213.2367,236.1712 213.2367,236.9962 C213.2367,237.8212 212.5677,238.4902 211.7427,238.4902 C210.9177,238.4902 210.2487,237.8212 210.2487,236.9962 C210.2487,236.1712 210.9177,235.5022 211.7427,235.5022 Z M-87.5986,235.5022 C-86.7736,235.5022 -86.1046,236.1712 -86.1046,236.9962 C-86.1046,237.8212 -86.7736,238.4902 -87.5986,238.4902 C-88.4236,238.4902 -89.0926,237.8212 -89.0926,236.9962 C-89.0926,236.1712 -88.4236,235.5022 -87.5986,235.5022 Z M-44.8355,235.5022 C-44.0105,235.5022 -43.3415,236.1712 -43.3415,236.9962 C-43.3415,237.8212 -44.0105,238.4902 -44.8355,238.4902 C-45.6605,238.4902 -46.3295,237.8212 -46.3295,236.9962 C-46.3295,236.1712 -45.6605,235.5022 -44.8355,235.5022 Z M-2.0725,235.5022 C-1.2475,235.5022 -0.5785,236.1712 -0.5785,236.9962 C-0.5785,237.8212 -1.2475,238.4902 -2.0725,238.4902 C-2.8975,238.4902 -3.5665,237.8212 -3.5665,236.9962 C-3.5665,236.1712 -2.8975,235.5022 -2.0725,235.5022 Z M-151.7432,235.5022 C-150.9182,235.5022 -150.2492,236.1712 -150.2492,236.9962 C-150.2492,237.8212 -150.9182,238.4902 -151.7432,238.4902 C-152.5682,238.4902 -153.2372,237.8212 -153.2372,236.9962 C-153.2372,236.1712 -152.5682,235.5022 -151.7432,235.5022 Z M254.5059,235.5022 C255.3309,235.5022 255.9999,236.1712 255.9999,236.9962 C255.9999,237.8212 255.3309,238.4902 254.5059,238.4902 C253.6809,238.4902 253.0119,237.8212 253.0119,236.9962 C253.0119,236.1712 253.6809,235.5022 254.5059,235.5022 Z M83.4536,235.5022 C84.2786,235.5022 84.9476,236.1712 84.9476,236.9962 C84.9476,237.8212 84.2786,238.4902 83.4536,238.4902 C82.6286,238.4902 81.9596,237.8212 81.9596,236.9962 C81.9596,236.1712 82.6286,235.5022 83.4536,235.5022 Z M-23.4541,235.5022 C-22.6291,235.5022 -21.9601,236.1712 -21.9601,236.9962 C-21.9601,237.8212 -22.6291,238.4902 -23.4541,238.4902 C-24.2791,238.4902 -24.9481,237.8212 -24.9481,236.9962 C-24.9481,236.1712 -24.2791,235.5022 -23.4541,235.5022 Z M-130.3616,235.5022 C-129.5366,235.5022 -128.8676,236.1712 -128.8676,236.9962 C-128.8676,237.8212 -129.5366,238.4902 -130.3616,238.4902 C-131.1866,238.4902 -131.8556,237.8212 -131.8556,236.9962 C-131.8556,236.1712 -131.1866,235.5022 -130.3616,235.5022 Z M-66.217,235.5022 C-65.392,235.5022 -64.723,236.1712 -64.723,236.9962 C-64.723,237.8212 -65.392,238.4902 -66.217,238.4902 C-67.042,238.4902 -67.711,237.8212 -67.711,236.9962 C-67.711,236.1712 -67.042,235.5022 -66.217,235.5022 Z M126.2165,235.5022 C127.0415,235.5022 127.7105,236.1712 127.7105,236.9962 C127.7105,237.8212 127.0415,238.4902 126.2165,238.4902 C125.3915,238.4902 124.7225,237.8212 124.7225,236.9962 C124.7225,236.1712 125.3915,235.5022 126.2165,235.5022 Z M-108.98,235.5022 C-108.155,235.5022 -107.486,236.1712 -107.486,236.9962 C-107.486,237.8212 -108.155,238.4902 -108.98,238.4902 C-109.805,238.4902 -110.474,237.8212 -110.474,236.9962 C-110.474,236.1712 -109.805,235.5022 -108.98,235.5022 Z M168.9797,235.5022 C169.8047,235.5022 170.4737,236.1712 170.4737,236.9962 C170.4737,237.8212 169.8047,238.4902 168.9797,238.4902 C168.1547,238.4902 167.4857,237.8212 167.4857,236.9962 C167.4857,236.1712 168.1547,235.5022 168.9797,235.5022 Z M40.6904,235.5022 C41.5154,235.5022 42.1844,236.1712 42.1844,236.9962 C42.1844,237.8212 41.5154,238.4902 40.6904,238.4902 C39.8654,238.4902 39.1964,237.8212 39.1964,236.9962 C39.1964,236.1712 39.8654,235.5022 40.6904,235.5022 Z M147.5981,235.5022 C148.4231,235.5022 149.0921,236.1712 149.0921,236.9962 C149.0921,237.8212 148.4231,238.4902 147.5981,238.4902 C146.7731,238.4902 146.1041,237.8212 146.1041,236.9962 C146.1041,236.1712 146.7731,235.5022 147.5981,235.5022 Z M-173.1245,235.5022 C-172.2995,235.5022 -171.6305,236.1712 -171.6305,236.9962 C-171.6305,237.8212 -172.2995,238.4902 -173.1245,238.4902 C-173.9495,238.4902 -174.6185,237.8212 -174.6185,236.9962 C-174.6185,236.1712 -173.9495,235.5022 -173.1245,235.5022 Z M104.835,235.5022 C105.66,235.5022 106.329,236.1712 106.329,236.9962 C106.329,237.8212 105.66,238.4902 104.835,238.4902 C104.01,238.4902 103.341,237.8212 103.341,236.9962 C103.341,236.1712 104.01,235.5022 104.835,235.5022 Z M190.3611,235.5022 C191.1861,235.5022 191.8551,236.1712 191.8551,236.9962 C191.8551,237.8212 191.1861,238.4902 190.3611,238.4902 C189.5361,238.4902 188.8671,237.8212 188.8671,236.9962 C188.8671,236.1712 189.5361,235.5022 190.3611,235.5022 Z M62.072,235.5022 C62.897,235.5022 63.566,236.1712 63.566,236.9962 C63.566,237.8212 62.897,238.4902 62.072,238.4902 C61.247,238.4902 60.578,237.8212 60.578,236.9962 C60.578,236.1712 61.247,235.5022 62.072,235.5022 Z M19.3091,235.5022 C20.1341,235.5022 20.8031,236.1712 20.8031,236.9962 C20.8031,237.8212 20.1341,238.4902 19.3091,238.4902 C18.4841,238.4902 17.8151,237.8212 17.8151,236.9962 C17.8151,236.1712 18.4841,235.5022 19.3091,235.5022 Z M-194.5059,235.5022 C-194.1129,235.5022 -193.7279,235.6612 -193.4499,235.9402 C-193.1709,236.2182 -193.0119,236.6032 -193.0119,236.9962 C-193.0119,237.3892 -193.1709,237.7742 -193.4499,238.0522 C-193.7279,238.3302 -194.1129,238.4902 -194.5059,238.4902 C-194.8989,238.4902 -195.2839,238.3302 -195.5619,238.0522 C-195.8409,237.7742 -195.9999,237.3892 -195.9999,236.9962 C-195.9999,236.6032 -195.8409,236.2182 -195.5629,235.9402 C-195.2839,235.6612 -194.8989,235.5022 -194.5059,235.5022 Z M275.8877,216.2512 C276.2807,216.2512 276.6657,216.4102 276.9437,216.6892 C277.2227,216.9672 277.3817,217.3522 277.3817,217.7452 C277.3817,218.1382 277.2227,218.5232 276.9437,218.8012 C276.6657,219.0792 276.2807,219.2392 275.8877,219.2392 C275.4937,219.2392 275.1097,219.0792 274.8317,218.8012 C274.5527,218.5232 274.3937,218.1382 274.3937,217.7452 C274.3937,217.3522 274.5527,216.9672 274.8307,216.6892 C275.1097,216.4102 275.4937,216.2512 275.8877,216.2512 Z M-173.1245,216.2512 C-172.2995,216.2512 -171.6305,216.9202 -171.6305,217.7452 C-171.6305,218.5702 -172.2995,219.2392 -173.1245,219.2392 C-173.9495,219.2392 -174.6185,218.5702 -174.6185,217.7452 C-174.6185,216.9202 -173.9495,216.2512 -173.1245,216.2512 Z M-151.7432,216.2512 C-150.9182,216.2512 -150.2492,216.9202 -150.2492,217.7452 C-150.2492,218.5702 -150.9182,219.2392 -151.7432,219.2392 C-152.5682,219.2392 -153.2372,218.5702 -153.2372,217.7452 C-153.2372,216.9202 -152.5682,216.2512 -151.7432,216.2512 Z M-130.3616,216.2512 C-129.5366,216.2512 -128.8676,216.9202 -128.8676,217.7452 C-128.8676,218.5702 -129.5366,219.2392 -130.3616,219.2392 C-131.1866,219.2392 -131.8556,218.5702 -131.8556,217.7452 C-131.8556,216.9202 -131.1866,216.2512 -130.3616,216.2512 Z M-108.98,216.2512 C-108.155,216.2512 -107.486,216.9202 -107.486,217.7452 C-107.486,218.5702 -108.155,219.2392 -108.98,219.2392 C-109.805,219.2392 -110.474,218.5702 -110.474,217.7452 C-110.474,216.9202 -109.805,216.2512 -108.98,216.2512 Z M-87.5986,216.2512 C-86.7736,216.2512 -86.1046,216.9202 -86.1046,217.7452 C-86.1046,218.5702 -86.7736,219.2392 -87.5986,219.2392 C-88.4236,219.2392 -89.0926,218.5702 -89.0926,217.7452 C-89.0926,216.9202 -88.4236,216.2512 -87.5986,216.2512 Z M-44.8355,216.2512 C-44.0105,216.2512 -43.3415,216.9202 -43.3415,217.7452 C-43.3415,218.5702 -44.0105,219.2392 -44.8355,219.2392 C-45.6605,219.2392 -46.3295,218.5702 -46.3295,217.7452 C-46.3295,216.9202 -45.6605,216.2512 -44.8355,216.2512 Z M190.3611,216.2512 C191.1861,216.2512 191.8551,216.9202 191.8551,217.7452 C191.8551,218.5702 191.1861,219.2392 190.3611,219.2392 C189.5361,219.2392 188.8671,218.5702 188.8671,217.7452 C188.8671,216.9202 189.5361,216.2512 190.3611,216.2512 Z M62.072,216.2512 C62.897,216.2512 63.566,216.9202 63.566,217.7452 C63.566,218.5702 62.897,219.2392 62.072,219.2392 C61.247,219.2392 60.578,218.5702 60.578,217.7452 C60.578,216.9202 61.247,216.2512 62.072,216.2512 Z M40.6904,216.2512 C41.5154,216.2512 42.1844,216.9202 42.1844,217.7452 C42.1844,218.5702 41.5154,219.2392 40.6904,219.2392 C39.8654,219.2392 39.1964,218.5702 39.1964,217.7452 C39.1964,216.9202 39.8654,216.2512 40.6904,216.2512 Z M211.7427,216.2512 C212.5677,216.2512 213.2367,216.9202 213.2367,217.7452 C213.2367,218.5702 212.5677,219.2392 211.7427,219.2392 C210.9177,219.2392 210.2487,218.5702 210.2487,217.7452 C210.2487,216.9202 210.9177,216.2512 211.7427,216.2512 Z M83.4536,216.2512 C84.2786,216.2512 84.9476,216.9202 84.9476,217.7452 C84.9476,218.5702 84.2786,219.2392 83.4536,219.2392 C82.6286,219.2392 81.9596,218.5702 81.9596,217.7452 C81.9596,216.9202 82.6286,216.2512 83.4536,216.2512 Z M126.2165,216.2512 C127.0415,216.2512 127.7105,216.9202 127.7105,217.7452 C127.7105,218.5702 127.0415,219.2392 126.2165,219.2392 C125.3915,219.2392 124.7225,218.5702 124.7225,217.7452 C124.7225,216.9202 125.3915,216.2512 126.2165,216.2512 Z M168.9797,216.2512 C169.8047,216.2512 170.4737,216.9202 170.4737,217.7452 C170.4737,218.5702 169.8047,219.2392 168.9797,219.2392 C168.1547,219.2392 167.4857,218.5702 167.4857,217.7452 C167.4857,216.9202 168.1547,216.2512 168.9797,216.2512 Z M104.835,216.2512 C105.66,216.2512 106.329,216.9202 106.329,217.7452 C106.329,218.5702 105.66,219.2392 104.835,219.2392 C104.01,219.2392 103.341,218.5702 103.341,217.7452 C103.341,216.9202 104.01,216.2512 104.835,216.2512 Z M-66.217,216.2512 C-65.392,216.2512 -64.723,216.9202 -64.723,217.7452 C-64.723,218.5702 -65.392,219.2392 -66.217,219.2392 C-67.042,219.2392 -67.711,218.5702 -67.711,217.7452 C-67.711,216.9202 -67.042,216.2512 -66.217,216.2512 Z M147.5981,216.2512 C148.4231,216.2512 149.0921,216.9202 149.0921,217.7452 C149.0921,218.5702 148.4231,219.2392 147.5981,219.2392 C146.7731,219.2392 146.1041,218.5702 146.1041,217.7452 C146.1041,216.9202 146.7731,216.2512 147.5981,216.2512 Z M-2.0725,216.2512 C-1.2475,216.2512 -0.5785,216.9202 -0.5785,217.7452 C-0.5785,218.5702 -1.2475,219.2392 -2.0725,219.2392 C-2.8975,219.2392 -3.5665,218.5702 -3.5665,217.7452 C-3.5665,216.9202 -2.8975,216.2512 -2.0725,216.2512 Z M233.1243,216.2512 C233.9493,216.2512 234.6183,216.9202 234.6183,217.7452 C234.6183,218.5702 233.9493,219.2392 233.1243,219.2392 C232.2993,219.2392 231.6303,218.5702 231.6303,217.7452 C231.6303,216.9202 232.2993,216.2512 233.1243,216.2512 Z M254.5059,216.2512 C255.3309,216.2512 255.9999,216.9202 255.9999,217.7452 C255.9999,218.5702 255.3309,219.2392 254.5059,219.2392 C253.6809,219.2392 253.0119,218.5702 253.0119,217.7452 C253.0119,216.9202 253.6809,216.2512 254.5059,216.2512 Z M-23.4541,216.2512 C-22.6291,216.2512 -21.9601,216.9202 -21.9601,217.7452 C-21.9601,218.5702 -22.6291,219.2392 -23.4541,219.2392 C-24.2791,219.2392 -24.9481,218.5702 -24.9481,217.7452 C-24.9481,216.9202 -24.2791,216.2512 -23.4541,216.2512 Z M19.3091,216.2512 C20.1341,216.2512 20.8031,216.9202 20.8031,217.7452 C20.8031,218.5702 20.1341,219.2392 19.3091,219.2392 C18.4841,219.2392 17.8151,218.5702 17.8151,217.7452 C17.8151,216.9202 18.4841,216.2512 19.3091,216.2512 Z M-194.5059,216.2512 C-194.1129,216.2512 -193.7279,216.4102 -193.4499,216.6892 C-193.1709,216.9672 -193.0119,217.3522 -193.0119,217.7452 C-193.0119,218.1382 -193.1709,218.5232 -193.4499,218.8012 C-193.7279,219.0792 -194.1129,219.2392 -194.5059,219.2392 C-194.8989,219.2392 -195.2839,219.0792 -195.5619,218.8012 C-195.8409,218.5232 -195.9999,218.1382 -195.9999,217.7452 C-195.9999,217.3522 -195.8409,216.9672 -195.5629,216.6892 C-195.2839,216.4102 -194.8989,216.2512 -194.5059,216.2512 Z M275.8877,199.9881 C275.4937,199.9881 275.1097,199.8291 274.8317,199.5501 C274.5527,199.2721 274.3937,198.8871 274.3937,198.4941 C274.3937,198.1011 274.5527,197.7161 274.8307,197.4381 C275.1097,197.1601 275.4937,197.0001 275.8877,197.0001 C276.2807,197.0001 276.6657,197.1601 276.9437,197.4381 C277.2227,197.7161 277.3817,198.1011 277.3817,198.4941 C277.3817,198.8871 277.2227,199.2721 276.9437,199.5501 C276.6657,199.8291 276.2807,199.9881 275.8877,199.9881 Z M147.5981,197.0002 C148.4231,197.0002 149.0921,197.6692 149.0921,198.4942 C149.0921,199.3192 148.4231,199.9882 147.5981,199.9882 C146.7731,199.9882 146.1041,199.3192 146.1041,198.4942 C146.1041,197.6692 146.7731,197.0002 147.5981,197.0002 Z M254.5059,197.0002 C255.3309,197.0002 255.9999,197.6692 255.9999,198.4942 C255.9999,199.3192 255.3309,199.9882 254.5059,199.9882 C253.6809,199.9882 253.0119,199.3192 253.0119,198.4942 C253.0119,197.6692 253.6809,197.0002 254.5059,197.0002 Z M168.9797,197.0002 C169.8047,197.0002 170.4737,197.6692 170.4737,198.4942 C170.4737,199.3192 169.8047,199.9882 168.9797,199.9882 C168.1547,199.9882 167.4857,199.3192 167.4857,198.4942 C167.4857,197.6692 168.1547,197.0002 168.9797,197.0002 Z M211.7427,197.0002 C212.5677,197.0002 213.2367,197.6692 213.2367,198.4942 C213.2367,199.3192 212.5677,199.9882 211.7427,199.9882 C210.9177,199.9882 210.2487,199.3192 210.2487,198.4942 C210.2487,197.6692 210.9177,197.0002 211.7427,197.0002 Z M190.3611,197.0002 C191.1861,197.0002 191.8551,197.6692 191.8551,198.4942 C191.8551,199.3192 191.1861,199.9882 190.3611,199.9882 C189.5361,199.9882 188.8671,199.3192 188.8671,198.4942 C188.8671,197.6692 189.5361,197.0002 190.3611,197.0002 Z M233.1243,197.0002 C233.9493,197.0002 234.6183,197.6692 234.6183,198.4942 C234.6183,199.3192 233.9493,199.9882 233.1243,199.9882 C232.2993,199.9882 231.6303,199.3192 231.6303,198.4942 C231.6303,197.6692 232.2993,197.0002 233.1243,197.0002 Z M-173.1245,197.0002 C-172.2995,197.0002 -171.6305,197.6692 -171.6305,198.4942 C-171.6305,199.3192 -172.2995,199.9882 -173.1245,199.9882 C-173.9495,199.9882 -174.6185,199.3192 -174.6185,198.4942 C-174.6185,197.6692 -173.9495,197.0002 -173.1245,197.0002 Z M19.3091,197.0002 C20.1341,197.0002 20.8031,197.6692 20.8031,198.4942 C20.8031,199.3192 20.1341,199.9882 19.3091,199.9882 C18.4841,199.9882 17.8151,199.3192 17.8151,198.4942 C17.8151,197.6692 18.4841,197.0002 19.3091,197.0002 Z M-23.4541,197.0002 C-22.6291,197.0002 -21.9601,197.6692 -21.9601,198.4942 C-21.9601,199.3192 -22.6291,199.9882 -23.4541,199.9882 C-24.2791,199.9882 -24.9481,199.3192 -24.9481,198.4942 C-24.9481,197.6692 -24.2791,197.0002 -23.4541,197.0002 Z M-108.98,197.0002 C-108.155,197.0002 -107.486,197.6692 -107.486,198.4942 C-107.486,199.3192 -108.155,199.9882 -108.98,199.9882 C-109.805,199.9882 -110.474,199.3192 -110.474,198.4942 C-110.474,197.6692 -109.805,197.0002 -108.98,197.0002 Z M-2.0725,197.0002 C-1.2475,197.0002 -0.5785,197.6692 -0.5785,198.4942 C-0.5785,199.3192 -1.2475,199.9882 -2.0725,199.9882 C-2.8975,199.9882 -3.5665,199.3192 -3.5665,198.4942 C-3.5665,197.6692 -2.8975,197.0002 -2.0725,197.0002 Z M-66.217,197.0002 C-65.392,197.0002 -64.723,197.6692 -64.723,198.4942 C-64.723,199.3192 -65.392,199.9882 -66.217,199.9882 C-67.042,199.9882 -67.711,199.3192 -67.711,198.4942 C-67.711,197.6692 -67.042,197.0002 -66.217,197.0002 Z M-44.8355,197.0002 C-44.0105,197.0002 -43.3415,197.6692 -43.3415,198.4942 C-43.3415,199.3192 -44.0105,199.9882 -44.8355,199.9882 C-45.6605,199.9882 -46.3295,199.3192 -46.3295,198.4942 C-46.3295,197.6692 -45.6605,197.0002 -44.8355,197.0002 Z M-87.5986,197.0002 C-86.7736,197.0002 -86.1046,197.6692 -86.1046,198.4942 C-86.1046,199.3192 -86.7736,199.9882 -87.5986,199.9882 C-88.4236,199.9882 -89.0926,199.3192 -89.0926,198.4942 C-89.0926,197.6692 -88.4236,197.0002 -87.5986,197.0002 Z M40.6904,197.0002 C41.5154,197.0002 42.1844,197.6692 42.1844,198.4942 C42.1844,199.3192 41.5154,199.9882 40.6904,199.9882 C39.8654,199.9882 39.1964,199.3192 39.1964,198.4942 C39.1964,197.6692 39.8654,197.0002 40.6904,197.0002 Z M104.835,197.0002 C105.66,197.0002 106.329,197.6692 106.329,198.4942 C106.329,199.3192 105.66,199.9882 104.835,199.9882 C104.01,199.9882 103.341,199.3192 103.341,198.4942 C103.341,197.6692 104.01,197.0002 104.835,197.0002 Z M83.4536,197.0002 C84.2786,197.0002 84.9476,197.6692 84.9476,198.4942 C84.9476,199.3192 84.2786,199.9882 83.4536,199.9882 C82.6286,199.9882 81.9596,199.3192 81.9596,198.4942 C81.9596,197.6692 82.6286,197.0002 83.4536,197.0002 Z M-151.7432,197.0002 C-150.9182,197.0002 -150.2492,197.6692 -150.2492,198.4942 C-150.2492,199.3192 -150.9182,199.9882 -151.7432,199.9882 C-152.5682,199.9882 -153.2372,199.3192 -153.2372,198.4942 C-153.2372,197.6692 -152.5682,197.0002 -151.7432,197.0002 Z M126.2165,197.0002 C127.0415,197.0002 127.7105,197.6692 127.7105,198.4942 C127.7105,199.3192 127.0415,199.9882 126.2165,199.9882 C125.3915,199.9882 124.7225,199.3192 124.7225,198.4942 C124.7225,197.6692 125.3915,197.0002 126.2165,197.0002 Z M62.072,197.0002 C62.897,197.0002 63.566,197.6692 63.566,198.4942 C63.566,199.3192 62.897,199.9882 62.072,199.9882 C61.247,199.9882 60.578,199.3192 60.578,198.4942 C60.578,197.6692 61.247,197.0002 62.072,197.0002 Z M-130.3616,197.0002 C-129.5366,197.0002 -128.8676,197.6692 -128.8676,198.4942 C-128.8676,199.3192 -129.5366,199.9882 -130.3616,199.9882 C-131.1866,199.9882 -131.8556,199.3192 -131.8556,198.4942 C-131.8556,197.6692 -131.1866,197.0002 -130.3616,197.0002 Z M-194.5059,197.0002 C-194.1129,197.0002 -193.7279,197.1592 -193.4499,197.4382 C-193.1709,197.7162 -193.0119,198.1012 -193.0119,198.4942 C-193.0119,198.8872 -193.1709,199.2722 -193.4499,199.5502 C-193.7279,199.8292 -194.1129,199.9882 -194.5059,199.9882 C-194.8989,199.9882 -195.2839,199.8292 -195.5619,199.5502 C-195.8409,199.2722 -195.9999,198.8872 -195.9999,198.4942 C-195.9999,198.1012 -195.8409,197.7162 -195.5629,197.4382 C-195.2839,197.1592 -194.8989,197.0002 -194.5059,197.0002 Z" id="Combined-Shape" transform="translate(40.690900, 236.995600) rotate(-270.000000) translate(-40.690900, -236.995600) "></path>
                <path d="M369.8877,274.0031 C370.2807,274.0031 370.6657,274.1631 370.9437,274.4411 C371.2227,274.7191 371.3817,275.1041 371.3817,275.4971 C371.3817,275.8901 371.2227,276.2751 370.9437,276.5531 C370.6657,276.8321 370.2807,276.9911 369.8877,276.9911 C369.4937,276.9911 369.1097,276.8321 368.8317,276.5531 C368.5527,276.2751 368.3937,275.8901 368.3937,275.4971 C368.3937,275.1041 368.5527,274.7191 368.8307,274.4411 C369.1097,274.1631 369.4937,274.0031 369.8877,274.0031 Z M-14.98,274.0031 C-14.155,274.0031 -13.486,274.6721 -13.486,275.4971 C-13.486,276.3221 -14.155,276.9911 -14.98,276.9911 C-15.805,276.9911 -16.474,276.3221 -16.474,275.4971 C-16.474,274.6721 -15.805,274.0031 -14.98,274.0031 Z M177.4536,274.0031 C178.2786,274.0031 178.9476,274.6721 178.9476,275.4971 C178.9476,276.3221 178.2786,276.9911 177.4536,276.9911 C176.6286,276.9911 175.9596,276.3221 175.9596,275.4971 C175.9596,274.6721 176.6286,274.0031 177.4536,274.0031 Z M-57.7432,274.0031 C-56.9182,274.0031 -56.2492,274.6721 -56.2492,275.4971 C-56.2492,276.3221 -56.9182,276.9911 -57.7432,276.9911 C-58.5682,276.9911 -59.2372,276.3221 -59.2372,275.4971 C-59.2372,274.6721 -58.5682,274.0031 -57.7432,274.0031 Z M220.2165,274.0031 C221.0415,274.0031 221.7105,274.6721 221.7105,275.4971 C221.7105,276.3221 221.0415,276.9911 220.2165,276.9911 C219.3915,276.9911 218.7225,276.3221 218.7225,275.4971 C218.7225,274.6721 219.3915,274.0031 220.2165,274.0031 Z M-36.3616,274.0031 C-35.5366,274.0031 -34.8676,274.6721 -34.8676,275.4971 C-34.8676,276.3221 -35.5366,276.9911 -36.3616,276.9911 C-37.1866,276.9911 -37.8556,276.3221 -37.8556,275.4971 C-37.8556,274.6721 -37.1866,274.0031 -36.3616,274.0031 Z M241.5981,274.0031 C242.4231,274.0031 243.0921,274.6721 243.0921,275.4971 C243.0921,276.3221 242.4231,276.9911 241.5981,276.9911 C240.7731,276.9911 240.1041,276.3221 240.1041,275.4971 C240.1041,274.6721 240.7731,274.0031 241.5981,274.0031 Z M156.072,274.0031 C156.897,274.0031 157.566,274.6721 157.566,275.4971 C157.566,276.3221 156.897,276.9911 156.072,276.9911 C155.247,276.9911 154.578,276.3221 154.578,275.4971 C154.578,274.6721 155.247,274.0031 156.072,274.0031 Z M27.783,274.0031 C28.608,274.0031 29.277,274.6721 29.277,275.4971 C29.277,276.3221 28.608,276.9911 27.783,276.9911 C26.958,276.9911 26.289,276.3221 26.289,275.4971 C26.289,274.6721 26.958,274.0031 27.783,274.0031 Z M198.835,274.0031 C199.66,274.0031 200.329,274.6721 200.329,275.4971 C200.329,276.3221 199.66,276.9911 198.835,276.9911 C198.01,276.9911 197.341,276.3221 197.341,275.4971 C197.341,274.6721 198.01,274.0031 198.835,274.0031 Z M6.4014,274.0031 C7.2264,274.0031 7.8954,274.6721 7.8954,275.4971 C7.8954,276.3221 7.2264,276.9911 6.4014,276.9911 C5.5764,276.9911 4.9074,276.3221 4.9074,275.4971 C4.9074,274.6721 5.5764,274.0031 6.4014,274.0031 Z M327.1243,274.0031 C327.9493,274.0031 328.6183,274.6721 328.6183,275.4971 C328.6183,276.3221 327.9493,276.9911 327.1243,276.9911 C326.2993,276.9911 325.6303,276.3221 325.6303,275.4971 C325.6303,274.6721 326.2993,274.0031 327.1243,274.0031 Z M91.9275,274.0031 C92.7525,274.0031 93.4215,274.6721 93.4215,275.4971 C93.4215,276.3221 92.7525,276.9911 91.9275,276.9911 C91.1025,276.9911 90.4335,276.3221 90.4335,275.4971 C90.4335,274.6721 91.1025,274.0031 91.9275,274.0031 Z M-79.1245,274.0031 C-78.2995,274.0031 -77.6305,274.6721 -77.6305,275.4971 C-77.6305,276.3221 -78.2995,276.9911 -79.1245,276.9911 C-79.9495,276.9911 -80.6185,276.3221 -80.6185,275.4971 C-80.6185,274.6721 -79.9495,274.0031 -79.1245,274.0031 Z M49.1645,274.0031 C49.9895,274.0031 50.6585,274.6721 50.6585,275.4971 C50.6585,276.3221 49.9895,276.9911 49.1645,276.9911 C48.3395,276.9911 47.6705,276.3221 47.6705,275.4971 C47.6705,274.6721 48.3395,274.0031 49.1645,274.0031 Z M305.7427,274.0031 C306.5677,274.0031 307.2367,274.6721 307.2367,275.4971 C307.2367,276.3221 306.5677,276.9911 305.7427,276.9911 C304.9177,276.9911 304.2487,276.3221 304.2487,275.4971 C304.2487,274.6721 304.9177,274.0031 305.7427,274.0031 Z M348.5059,274.0031 C349.3309,274.0031 349.9999,274.6721 349.9999,275.4971 C349.9999,276.3221 349.3309,276.9911 348.5059,276.9911 C347.6809,276.9911 347.0119,276.3221 347.0119,275.4971 C347.0119,274.6721 347.6809,274.0031 348.5059,274.0031 Z M262.9797,274.0031 C263.8047,274.0031 264.4737,274.6721 264.4737,275.4971 C264.4737,276.3221 263.8047,276.9911 262.9797,276.9911 C262.1547,276.9911 261.4857,276.3221 261.4857,275.4971 C261.4857,274.6721 262.1547,274.0031 262.9797,274.0031 Z M70.5459,274.0031 C71.3709,274.0031 72.0399,274.6721 72.0399,275.4971 C72.0399,276.3221 71.3709,276.9911 70.5459,276.9911 C69.7209,276.9911 69.0519,276.3221 69.0519,275.4971 C69.0519,274.6721 69.7209,274.0031 70.5459,274.0031 Z M113.3091,274.0031 C114.1341,274.0031 114.8031,274.6721 114.8031,275.4971 C114.8031,276.3221 114.1341,276.9911 113.3091,276.9911 C112.4841,276.9911 111.8151,276.3221 111.8151,275.4971 C111.8151,274.6721 112.4841,274.0031 113.3091,274.0031 Z M284.3611,274.0031 C285.1861,274.0031 285.8551,274.6721 285.8551,275.4971 C285.8551,276.3221 285.1861,276.9911 284.3611,276.9911 C283.5361,276.9911 282.8671,276.3221 282.8671,275.4971 C282.8671,274.6721 283.5361,274.0031 284.3611,274.0031 Z M134.6904,274.0031 C135.5154,274.0031 136.1844,274.6721 136.1844,275.4971 C136.1844,276.3221 135.5154,276.9911 134.6904,276.9911 C133.8654,276.9911 133.1964,276.3221 133.1964,275.4971 C133.1964,274.6721 133.8654,274.0031 134.6904,274.0031 Z M-100.5059,274.0031 C-100.1129,274.0031 -99.7279,274.1631 -99.4499,274.4411 C-99.1709,274.7191 -99.0119,275.1041 -99.0119,275.4971 C-99.0119,275.8901 -99.1709,276.2751 -99.4499,276.5531 C-99.7279,276.8321 -100.1129,276.9911 -100.5059,276.9911 C-100.8989,276.9911 -101.2839,276.8321 -101.5619,276.5531 C-101.8409,276.2751 -101.9999,275.8901 -101.9999,275.4971 C-101.9999,275.1041 -101.8409,274.7191 -101.5629,274.4411 C-101.2839,274.1631 -100.8989,274.0031 -100.5059,274.0031 Z M369.8877,254.7522 C370.2807,254.7522 370.6657,254.9112 370.9437,255.1902 C371.2227,255.4682 371.3817,255.8532 371.3817,256.2462 C371.3817,256.6392 371.2227,257.0242 370.9437,257.3022 C370.6657,257.5802 370.2807,257.7402 369.8877,257.7402 C369.4937,257.7402 369.1097,257.5802 368.8317,257.3022 C368.5527,257.0242 368.3937,256.6392 368.3937,256.2462 C368.3937,255.8532 368.5527,255.4682 368.8307,255.1902 C369.1097,254.9112 369.4937,254.7522 369.8877,254.7522 Z M134.6904,254.7522 C135.5154,254.7522 136.1844,255.4212 136.1844,256.2462 C136.1844,257.0712 135.5154,257.7402 134.6904,257.7402 C133.8654,257.7402 133.1964,257.0712 133.1964,256.2462 C133.1964,255.4212 133.8654,254.7522 134.6904,254.7522 Z M-14.98,254.7522 C-14.155,254.7522 -13.486,255.4212 -13.486,256.2462 C-13.486,257.0712 -14.155,257.7402 -14.98,257.7402 C-15.805,257.7402 -16.474,257.0712 -16.474,256.2462 C-16.474,255.4212 -15.805,254.7522 -14.98,254.7522 Z M6.4014,254.7522 C7.2264,254.7522 7.8954,255.4212 7.8954,256.2462 C7.8954,257.0712 7.2264,257.7402 6.4014,257.7402 C5.5764,257.7402 4.9074,257.0712 4.9074,256.2462 C4.9074,255.4212 5.5764,254.7522 6.4014,254.7522 Z M156.072,254.7522 C156.897,254.7522 157.566,255.4212 157.566,256.2462 C157.566,257.0712 156.897,257.7402 156.072,257.7402 C155.247,257.7402 154.578,257.0712 154.578,256.2462 C154.578,255.4212 155.247,254.7522 156.072,254.7522 Z M91.9275,254.7522 C92.7525,254.7522 93.4215,255.4212 93.4215,256.2462 C93.4215,257.0712 92.7525,257.7402 91.9275,257.7402 C91.1025,257.7402 90.4335,257.0712 90.4335,256.2462 C90.4335,255.4212 91.1025,254.7522 91.9275,254.7522 Z M70.5459,254.7522 C71.3709,254.7522 72.0399,255.4212 72.0399,256.2462 C72.0399,257.0712 71.3709,257.7402 70.5459,257.7402 C69.7209,257.7402 69.0519,257.0712 69.0519,256.2462 C69.0519,255.4212 69.7209,254.7522 70.5459,254.7522 Z M113.3091,254.7522 C114.1341,254.7522 114.8031,255.4212 114.8031,256.2462 C114.8031,257.0712 114.1341,257.7402 113.3091,257.7402 C112.4841,257.7402 111.8151,257.0712 111.8151,256.2462 C111.8151,255.4212 112.4841,254.7522 113.3091,254.7522 Z M177.4536,254.7522 C178.2786,254.7522 178.9476,255.4212 178.9476,256.2462 C178.9476,257.0712 178.2786,257.7402 177.4536,257.7402 C176.6286,257.7402 175.9596,257.0712 175.9596,256.2462 C175.9596,255.4212 176.6286,254.7522 177.4536,254.7522 Z M220.2165,254.7522 C221.0415,254.7522 221.7105,255.4212 221.7105,256.2462 C221.7105,257.0712 221.0415,257.7402 220.2165,257.7402 C219.3915,257.7402 218.7225,257.0712 218.7225,256.2462 C218.7225,255.4212 219.3915,254.7522 220.2165,254.7522 Z M284.3611,254.7522 C285.1861,254.7522 285.8551,255.4212 285.8551,256.2462 C285.8551,257.0712 285.1861,257.7402 284.3611,257.7402 C283.5361,257.7402 282.8671,257.0712 282.8671,256.2462 C282.8671,255.4212 283.5361,254.7522 284.3611,254.7522 Z M262.9797,254.7522 C263.8047,254.7522 264.4737,255.4212 264.4737,256.2462 C264.4737,257.0712 263.8047,257.7402 262.9797,257.7402 C262.1547,257.7402 261.4857,257.0712 261.4857,256.2462 C261.4857,255.4212 262.1547,254.7522 262.9797,254.7522 Z M-79.1245,254.7522 C-78.2995,254.7522 -77.6305,255.4212 -77.6305,256.2462 C-77.6305,257.0712 -78.2995,257.7402 -79.1245,257.7402 C-79.9495,257.7402 -80.6185,257.0712 -80.6185,256.2462 C-80.6185,255.4212 -79.9495,254.7522 -79.1245,254.7522 Z M-57.7432,254.7522 C-56.9182,254.7522 -56.2492,255.4212 -56.2492,256.2462 C-56.2492,257.0712 -56.9182,257.7402 -57.7432,257.7402 C-58.5682,257.7402 -59.2372,257.0712 -59.2372,256.2462 C-59.2372,255.4212 -58.5682,254.7522 -57.7432,254.7522 Z M27.783,254.7522 C28.608,254.7522 29.277,255.4212 29.277,256.2462 C29.277,257.0712 28.608,257.7402 27.783,257.7402 C26.958,257.7402 26.289,257.0712 26.289,256.2462 C26.289,255.4212 26.958,254.7522 27.783,254.7522 Z M241.5981,254.7522 C242.4231,254.7522 243.0921,255.4212 243.0921,256.2462 C243.0921,257.0712 242.4231,257.7402 241.5981,257.7402 C240.7731,257.7402 240.1041,257.0712 240.1041,256.2462 C240.1041,255.4212 240.7731,254.7522 241.5981,254.7522 Z M305.7427,254.7522 C306.5677,254.7522 307.2367,255.4212 307.2367,256.2462 C307.2367,257.0712 306.5677,257.7402 305.7427,257.7402 C304.9177,257.7402 304.2487,257.0712 304.2487,256.2462 C304.2487,255.4212 304.9177,254.7522 305.7427,254.7522 Z M327.1243,254.7522 C327.9493,254.7522 328.6183,255.4212 328.6183,256.2462 C328.6183,257.0712 327.9493,257.7402 327.1243,257.7402 C326.2993,257.7402 325.6303,257.0712 325.6303,256.2462 C325.6303,255.4212 326.2993,254.7522 327.1243,254.7522 Z M348.5059,254.7522 C349.3309,254.7522 349.9999,255.4212 349.9999,256.2462 C349.9999,257.0712 349.3309,257.7402 348.5059,257.7402 C347.6809,257.7402 347.0119,257.0712 347.0119,256.2462 C347.0119,255.4212 347.6809,254.7522 348.5059,254.7522 Z M49.1645,254.7522 C49.9895,254.7522 50.6585,255.4212 50.6585,256.2462 C50.6585,257.0712 49.9895,257.7402 49.1645,257.7402 C48.3395,257.7402 47.6705,257.0712 47.6705,256.2462 C47.6705,255.4212 48.3395,254.7522 49.1645,254.7522 Z M-36.3616,254.7522 C-35.5366,254.7522 -34.8676,255.4212 -34.8676,256.2462 C-34.8676,257.0712 -35.5366,257.7402 -36.3616,257.7402 C-37.1866,257.7402 -37.8556,257.0712 -37.8556,256.2462 C-37.8556,255.4212 -37.1866,254.7522 -36.3616,254.7522 Z M198.835,254.7522 C199.66,254.7522 200.329,255.4212 200.329,256.2462 C200.329,257.0712 199.66,257.7402 198.835,257.7402 C198.01,257.7402 197.341,257.0712 197.341,256.2462 C197.341,255.4212 198.01,254.7522 198.835,254.7522 Z M-100.5059,254.7522 C-100.1129,254.7522 -99.7279,254.9112 -99.4499,255.1902 C-99.1709,255.4682 -99.0119,255.8532 -99.0119,256.2462 C-99.0119,256.6392 -99.1709,257.0242 -99.4499,257.3022 C-99.7279,257.5802 -100.1129,257.7402 -100.5059,257.7402 C-100.8989,257.7402 -101.2839,257.5802 -101.5619,257.3022 C-101.8409,257.0242 -101.9999,256.6392 -101.9999,256.2462 C-101.9999,255.8532 -101.8409,255.4682 -101.5629,255.1902 C-101.2839,254.9112 -100.8989,254.7522 -100.5059,254.7522 Z M369.8877,235.5022 C370.2807,235.5022 370.6657,235.6612 370.9437,235.9402 C371.2227,236.2182 371.3817,236.6032 371.3817,236.9962 C371.3817,237.3892 371.2227,237.7742 370.9437,238.0522 C370.6657,238.3302 370.2807,238.4902 369.8877,238.4902 C369.4937,238.4902 369.1097,238.3302 368.8317,238.0522 C368.5527,237.7742 368.3937,237.3892 368.3937,236.9962 C368.3937,236.6032 368.5527,236.2182 368.8307,235.9402 C369.1097,235.6612 369.4937,235.5022 369.8877,235.5022 Z M327.1243,235.5022 C327.9493,235.5022 328.6183,236.1712 328.6183,236.9962 C328.6183,237.8212 327.9493,238.4902 327.1243,238.4902 C326.2993,238.4902 325.6303,237.8212 325.6303,236.9962 C325.6303,236.1712 326.2993,235.5022 327.1243,235.5022 Z M305.7427,235.5022 C306.5677,235.5022 307.2367,236.1712 307.2367,236.9962 C307.2367,237.8212 306.5677,238.4902 305.7427,238.4902 C304.9177,238.4902 304.2487,237.8212 304.2487,236.9962 C304.2487,236.1712 304.9177,235.5022 305.7427,235.5022 Z M6.4014,235.5022 C7.2264,235.5022 7.8954,236.1712 7.8954,236.9962 C7.8954,237.8212 7.2264,238.4902 6.4014,238.4902 C5.5764,238.4902 4.9074,237.8212 4.9074,236.9962 C4.9074,236.1712 5.5764,235.5022 6.4014,235.5022 Z M49.1645,235.5022 C49.9895,235.5022 50.6585,236.1712 50.6585,236.9962 C50.6585,237.8212 49.9895,238.4902 49.1645,238.4902 C48.3395,238.4902 47.6705,237.8212 47.6705,236.9962 C47.6705,236.1712 48.3395,235.5022 49.1645,235.5022 Z M91.9275,235.5022 C92.7525,235.5022 93.4215,236.1712 93.4215,236.9962 C93.4215,237.8212 92.7525,238.4902 91.9275,238.4902 C91.1025,238.4902 90.4335,237.8212 90.4335,236.9962 C90.4335,236.1712 91.1025,235.5022 91.9275,235.5022 Z M-57.7432,235.5022 C-56.9182,235.5022 -56.2492,236.1712 -56.2492,236.9962 C-56.2492,237.8212 -56.9182,238.4902 -57.7432,238.4902 C-58.5682,238.4902 -59.2372,237.8212 -59.2372,236.9962 C-59.2372,236.1712 -58.5682,235.5022 -57.7432,235.5022 Z M348.5059,235.5022 C349.3309,235.5022 349.9999,236.1712 349.9999,236.9962 C349.9999,237.8212 349.3309,238.4902 348.5059,238.4902 C347.6809,238.4902 347.0119,237.8212 347.0119,236.9962 C347.0119,236.1712 347.6809,235.5022 348.5059,235.5022 Z M177.4536,235.5022 C178.2786,235.5022 178.9476,236.1712 178.9476,236.9962 C178.9476,237.8212 178.2786,238.4902 177.4536,238.4902 C176.6286,238.4902 175.9596,237.8212 175.9596,236.9962 C175.9596,236.1712 176.6286,235.5022 177.4536,235.5022 Z M70.5459,235.5022 C71.3709,235.5022 72.0399,236.1712 72.0399,236.9962 C72.0399,237.8212 71.3709,238.4902 70.5459,238.4902 C69.7209,238.4902 69.0519,237.8212 69.0519,236.9962 C69.0519,236.1712 69.7209,235.5022 70.5459,235.5022 Z M-36.3616,235.5022 C-35.5366,235.5022 -34.8676,236.1712 -34.8676,236.9962 C-34.8676,237.8212 -35.5366,238.4902 -36.3616,238.4902 C-37.1866,238.4902 -37.8556,237.8212 -37.8556,236.9962 C-37.8556,236.1712 -37.1866,235.5022 -36.3616,235.5022 Z M27.783,235.5022 C28.608,235.5022 29.277,236.1712 29.277,236.9962 C29.277,237.8212 28.608,238.4902 27.783,238.4902 C26.958,238.4902 26.289,237.8212 26.289,236.9962 C26.289,236.1712 26.958,235.5022 27.783,235.5022 Z M220.2165,235.5022 C221.0415,235.5022 221.7105,236.1712 221.7105,236.9962 C221.7105,237.8212 221.0415,238.4902 220.2165,238.4902 C219.3915,238.4902 218.7225,237.8212 218.7225,236.9962 C218.7225,236.1712 219.3915,235.5022 220.2165,235.5022 Z M-14.98,235.5022 C-14.155,235.5022 -13.486,236.1712 -13.486,236.9962 C-13.486,237.8212 -14.155,238.4902 -14.98,238.4902 C-15.805,238.4902 -16.474,237.8212 -16.474,236.9962 C-16.474,236.1712 -15.805,235.5022 -14.98,235.5022 Z M262.9797,235.5022 C263.8047,235.5022 264.4737,236.1712 264.4737,236.9962 C264.4737,237.8212 263.8047,238.4902 262.9797,238.4902 C262.1547,238.4902 261.4857,237.8212 261.4857,236.9962 C261.4857,236.1712 262.1547,235.5022 262.9797,235.5022 Z M134.6904,235.5022 C135.5154,235.5022 136.1844,236.1712 136.1844,236.9962 C136.1844,237.8212 135.5154,238.4902 134.6904,238.4902 C133.8654,238.4902 133.1964,237.8212 133.1964,236.9962 C133.1964,236.1712 133.8654,235.5022 134.6904,235.5022 Z M241.5981,235.5022 C242.4231,235.5022 243.0921,236.1712 243.0921,236.9962 C243.0921,237.8212 242.4231,238.4902 241.5981,238.4902 C240.7731,238.4902 240.1041,237.8212 240.1041,236.9962 C240.1041,236.1712 240.7731,235.5022 241.5981,235.5022 Z M-79.1245,235.5022 C-78.2995,235.5022 -77.6305,236.1712 -77.6305,236.9962 C-77.6305,237.8212 -78.2995,238.4902 -79.1245,238.4902 C-79.9495,238.4902 -80.6185,237.8212 -80.6185,236.9962 C-80.6185,236.1712 -79.9495,235.5022 -79.1245,235.5022 Z M198.835,235.5022 C199.66,235.5022 200.329,236.1712 200.329,236.9962 C200.329,237.8212 199.66,238.4902 198.835,238.4902 C198.01,238.4902 197.341,237.8212 197.341,236.9962 C197.341,236.1712 198.01,235.5022 198.835,235.5022 Z M284.3611,235.5022 C285.1861,235.5022 285.8551,236.1712 285.8551,236.9962 C285.8551,237.8212 285.1861,238.4902 284.3611,238.4902 C283.5361,238.4902 282.8671,237.8212 282.8671,236.9962 C282.8671,236.1712 283.5361,235.5022 284.3611,235.5022 Z M156.072,235.5022 C156.897,235.5022 157.566,236.1712 157.566,236.9962 C157.566,237.8212 156.897,238.4902 156.072,238.4902 C155.247,238.4902 154.578,237.8212 154.578,236.9962 C154.578,236.1712 155.247,235.5022 156.072,235.5022 Z M113.3091,235.5022 C114.1341,235.5022 114.8031,236.1712 114.8031,236.9962 C114.8031,237.8212 114.1341,238.4902 113.3091,238.4902 C112.4841,238.4902 111.8151,237.8212 111.8151,236.9962 C111.8151,236.1712 112.4841,235.5022 113.3091,235.5022 Z M-100.5059,235.5022 C-100.1129,235.5022 -99.7279,235.6612 -99.4499,235.9402 C-99.1709,236.2182 -99.0119,236.6032 -99.0119,236.9962 C-99.0119,237.3892 -99.1709,237.7742 -99.4499,238.0522 C-99.7279,238.3302 -100.1129,238.4902 -100.5059,238.4902 C-100.8989,238.4902 -101.2839,238.3302 -101.5619,238.0522 C-101.8409,237.7742 -101.9999,237.3892 -101.9999,236.9962 C-101.9999,236.6032 -101.8409,236.2182 -101.5629,235.9402 C-101.2839,235.6612 -100.8989,235.5022 -100.5059,235.5022 Z M369.8877,216.2512 C370.2807,216.2512 370.6657,216.4102 370.9437,216.6892 C371.2227,216.9672 371.3817,217.3522 371.3817,217.7452 C371.3817,218.1382 371.2227,218.5232 370.9437,218.8012 C370.6657,219.0792 370.2807,219.2392 369.8877,219.2392 C369.4937,219.2392 369.1097,219.0792 368.8317,218.8012 C368.5527,218.5232 368.3937,218.1382 368.3937,217.7452 C368.3937,217.3522 368.5527,216.9672 368.8307,216.6892 C369.1097,216.4102 369.4937,216.2512 369.8877,216.2512 Z M-79.1245,216.2512 C-78.2995,216.2512 -77.6305,216.9202 -77.6305,217.7452 C-77.6305,218.5702 -78.2995,219.2392 -79.1245,219.2392 C-79.9495,219.2392 -80.6185,218.5702 -80.6185,217.7452 C-80.6185,216.9202 -79.9495,216.2512 -79.1245,216.2512 Z M-57.7432,216.2512 C-56.9182,216.2512 -56.2492,216.9202 -56.2492,217.7452 C-56.2492,218.5702 -56.9182,219.2392 -57.7432,219.2392 C-58.5682,219.2392 -59.2372,218.5702 -59.2372,217.7452 C-59.2372,216.9202 -58.5682,216.2512 -57.7432,216.2512 Z M-36.3616,216.2512 C-35.5366,216.2512 -34.8676,216.9202 -34.8676,217.7452 C-34.8676,218.5702 -35.5366,219.2392 -36.3616,219.2392 C-37.1866,219.2392 -37.8556,218.5702 -37.8556,217.7452 C-37.8556,216.9202 -37.1866,216.2512 -36.3616,216.2512 Z M-14.98,216.2512 C-14.155,216.2512 -13.486,216.9202 -13.486,217.7452 C-13.486,218.5702 -14.155,219.2392 -14.98,219.2392 C-15.805,219.2392 -16.474,218.5702 -16.474,217.7452 C-16.474,216.9202 -15.805,216.2512 -14.98,216.2512 Z M6.4014,216.2512 C7.2264,216.2512 7.8954,216.9202 7.8954,217.7452 C7.8954,218.5702 7.2264,219.2392 6.4014,219.2392 C5.5764,219.2392 4.9074,218.5702 4.9074,217.7452 C4.9074,216.9202 5.5764,216.2512 6.4014,216.2512 Z M49.1645,216.2512 C49.9895,216.2512 50.6585,216.9202 50.6585,217.7452 C50.6585,218.5702 49.9895,219.2392 49.1645,219.2392 C48.3395,219.2392 47.6705,218.5702 47.6705,217.7452 C47.6705,216.9202 48.3395,216.2512 49.1645,216.2512 Z M284.3611,216.2512 C285.1861,216.2512 285.8551,216.9202 285.8551,217.7452 C285.8551,218.5702 285.1861,219.2392 284.3611,219.2392 C283.5361,219.2392 282.8671,218.5702 282.8671,217.7452 C282.8671,216.9202 283.5361,216.2512 284.3611,216.2512 Z M156.072,216.2512 C156.897,216.2512 157.566,216.9202 157.566,217.7452 C157.566,218.5702 156.897,219.2392 156.072,219.2392 C155.247,219.2392 154.578,218.5702 154.578,217.7452 C154.578,216.9202 155.247,216.2512 156.072,216.2512 Z M134.6904,216.2512 C135.5154,216.2512 136.1844,216.9202 136.1844,217.7452 C136.1844,218.5702 135.5154,219.2392 134.6904,219.2392 C133.8654,219.2392 133.1964,218.5702 133.1964,217.7452 C133.1964,216.9202 133.8654,216.2512 134.6904,216.2512 Z M305.7427,216.2512 C306.5677,216.2512 307.2367,216.9202 307.2367,217.7452 C307.2367,218.5702 306.5677,219.2392 305.7427,219.2392 C304.9177,219.2392 304.2487,218.5702 304.2487,217.7452 C304.2487,216.9202 304.9177,216.2512 305.7427,216.2512 Z M177.4536,216.2512 C178.2786,216.2512 178.9476,216.9202 178.9476,217.7452 C178.9476,218.5702 178.2786,219.2392 177.4536,219.2392 C176.6286,219.2392 175.9596,218.5702 175.9596,217.7452 C175.9596,216.9202 176.6286,216.2512 177.4536,216.2512 Z M220.2165,216.2512 C221.0415,216.2512 221.7105,216.9202 221.7105,217.7452 C221.7105,218.5702 221.0415,219.2392 220.2165,219.2392 C219.3915,219.2392 218.7225,218.5702 218.7225,217.7452 C218.7225,216.9202 219.3915,216.2512 220.2165,216.2512 Z M262.9797,216.2512 C263.8047,216.2512 264.4737,216.9202 264.4737,217.7452 C264.4737,218.5702 263.8047,219.2392 262.9797,219.2392 C262.1547,219.2392 261.4857,218.5702 261.4857,217.7452 C261.4857,216.9202 262.1547,216.2512 262.9797,216.2512 Z M198.835,216.2512 C199.66,216.2512 200.329,216.9202 200.329,217.7452 C200.329,218.5702 199.66,219.2392 198.835,219.2392 C198.01,219.2392 197.341,218.5702 197.341,217.7452 C197.341,216.9202 198.01,216.2512 198.835,216.2512 Z M27.783,216.2512 C28.608,216.2512 29.277,216.9202 29.277,217.7452 C29.277,218.5702 28.608,219.2392 27.783,219.2392 C26.958,219.2392 26.289,218.5702 26.289,217.7452 C26.289,216.9202 26.958,216.2512 27.783,216.2512 Z M241.5981,216.2512 C242.4231,216.2512 243.0921,216.9202 243.0921,217.7452 C243.0921,218.5702 242.4231,219.2392 241.5981,219.2392 C240.7731,219.2392 240.1041,218.5702 240.1041,217.7452 C240.1041,216.9202 240.7731,216.2512 241.5981,216.2512 Z M91.9275,216.2512 C92.7525,216.2512 93.4215,216.9202 93.4215,217.7452 C93.4215,218.5702 92.7525,219.2392 91.9275,219.2392 C91.1025,219.2392 90.4335,218.5702 90.4335,217.7452 C90.4335,216.9202 91.1025,216.2512 91.9275,216.2512 Z M327.1243,216.2512 C327.9493,216.2512 328.6183,216.9202 328.6183,217.7452 C328.6183,218.5702 327.9493,219.2392 327.1243,219.2392 C326.2993,219.2392 325.6303,218.5702 325.6303,217.7452 C325.6303,216.9202 326.2993,216.2512 327.1243,216.2512 Z M348.5059,216.2512 C349.3309,216.2512 349.9999,216.9202 349.9999,217.7452 C349.9999,218.5702 349.3309,219.2392 348.5059,219.2392 C347.6809,219.2392 347.0119,218.5702 347.0119,217.7452 C347.0119,216.9202 347.6809,216.2512 348.5059,216.2512 Z M70.5459,216.2512 C71.3709,216.2512 72.0399,216.9202 72.0399,217.7452 C72.0399,218.5702 71.3709,219.2392 70.5459,219.2392 C69.7209,219.2392 69.0519,218.5702 69.0519,217.7452 C69.0519,216.9202 69.7209,216.2512 70.5459,216.2512 Z M113.3091,216.2512 C114.1341,216.2512 114.8031,216.9202 114.8031,217.7452 C114.8031,218.5702 114.1341,219.2392 113.3091,219.2392 C112.4841,219.2392 111.8151,218.5702 111.8151,217.7452 C111.8151,216.9202 112.4841,216.2512 113.3091,216.2512 Z M-100.5059,216.2512 C-100.1129,216.2512 -99.7279,216.4102 -99.4499,216.6892 C-99.1709,216.9672 -99.0119,217.3522 -99.0119,217.7452 C-99.0119,218.1382 -99.1709,218.5232 -99.4499,218.8012 C-99.7279,219.0792 -100.1129,219.2392 -100.5059,219.2392 C-100.8989,219.2392 -101.2839,219.0792 -101.5619,218.8012 C-101.8409,218.5232 -101.9999,218.1382 -101.9999,217.7452 C-101.9999,217.3522 -101.8409,216.9672 -101.5629,216.6892 C-101.2839,216.4102 -100.8989,216.2512 -100.5059,216.2512 Z M369.8877,199.9881 C369.4937,199.9881 369.1097,199.8291 368.8317,199.5501 C368.5527,199.2721 368.3937,198.8871 368.3937,198.4941 C368.3937,198.1011 368.5527,197.7161 368.8307,197.4381 C369.1097,197.1601 369.4937,197.0001 369.8877,197.0001 C370.2807,197.0001 370.6657,197.1601 370.9437,197.4381 C371.2227,197.7161 371.3817,198.1011 371.3817,198.4941 C371.3817,198.8871 371.2227,199.2721 370.9437,199.5501 C370.6657,199.8291 370.2807,199.9881 369.8877,199.9881 Z M241.5981,197.0002 C242.4231,197.0002 243.0921,197.6692 243.0921,198.4942 C243.0921,199.3192 242.4231,199.9882 241.5981,199.9882 C240.7731,199.9882 240.1041,199.3192 240.1041,198.4942 C240.1041,197.6692 240.7731,197.0002 241.5981,197.0002 Z M348.5059,197.0002 C349.3309,197.0002 349.9999,197.6692 349.9999,198.4942 C349.9999,199.3192 349.3309,199.9882 348.5059,199.9882 C347.6809,199.9882 347.0119,199.3192 347.0119,198.4942 C347.0119,197.6692 347.6809,197.0002 348.5059,197.0002 Z M262.9797,197.0002 C263.8047,197.0002 264.4737,197.6692 264.4737,198.4942 C264.4737,199.3192 263.8047,199.9882 262.9797,199.9882 C262.1547,199.9882 261.4857,199.3192 261.4857,198.4942 C261.4857,197.6692 262.1547,197.0002 262.9797,197.0002 Z M305.7427,197.0002 C306.5677,197.0002 307.2367,197.6692 307.2367,198.4942 C307.2367,199.3192 306.5677,199.9882 305.7427,199.9882 C304.9177,199.9882 304.2487,199.3192 304.2487,198.4942 C304.2487,197.6692 304.9177,197.0002 305.7427,197.0002 Z M284.3611,197.0002 C285.1861,197.0002 285.8551,197.6692 285.8551,198.4942 C285.8551,199.3192 285.1861,199.9882 284.3611,199.9882 C283.5361,199.9882 282.8671,199.3192 282.8671,198.4942 C282.8671,197.6692 283.5361,197.0002 284.3611,197.0002 Z M327.1243,197.0002 C327.9493,197.0002 328.6183,197.6692 328.6183,198.4942 C328.6183,199.3192 327.9493,199.9882 327.1243,199.9882 C326.2993,199.9882 325.6303,199.3192 325.6303,198.4942 C325.6303,197.6692 326.2993,197.0002 327.1243,197.0002 Z M-79.1245,197.0002 C-78.2995,197.0002 -77.6305,197.6692 -77.6305,198.4942 C-77.6305,199.3192 -78.2995,199.9882 -79.1245,199.9882 C-79.9495,199.9882 -80.6185,199.3192 -80.6185,198.4942 C-80.6185,197.6692 -79.9495,197.0002 -79.1245,197.0002 Z M113.3091,197.0002 C114.1341,197.0002 114.8031,197.6692 114.8031,198.4942 C114.8031,199.3192 114.1341,199.9882 113.3091,199.9882 C112.4841,199.9882 111.8151,199.3192 111.8151,198.4942 C111.8151,197.6692 112.4841,197.0002 113.3091,197.0002 Z M70.5459,197.0002 C71.3709,197.0002 72.0399,197.6692 72.0399,198.4942 C72.0399,199.3192 71.3709,199.9882 70.5459,199.9882 C69.7209,199.9882 69.0519,199.3192 69.0519,198.4942 C69.0519,197.6692 69.7209,197.0002 70.5459,197.0002 Z M-14.98,197.0002 C-14.155,197.0002 -13.486,197.6692 -13.486,198.4942 C-13.486,199.3192 -14.155,199.9882 -14.98,199.9882 C-15.805,199.9882 -16.474,199.3192 -16.474,198.4942 C-16.474,197.6692 -15.805,197.0002 -14.98,197.0002 Z M91.9275,197.0002 C92.7525,197.0002 93.4215,197.6692 93.4215,198.4942 C93.4215,199.3192 92.7525,199.9882 91.9275,199.9882 C91.1025,199.9882 90.4335,199.3192 90.4335,198.4942 C90.4335,197.6692 91.1025,197.0002 91.9275,197.0002 Z M27.783,197.0002 C28.608,197.0002 29.277,197.6692 29.277,198.4942 C29.277,199.3192 28.608,199.9882 27.783,199.9882 C26.958,199.9882 26.289,199.3192 26.289,198.4942 C26.289,197.6692 26.958,197.0002 27.783,197.0002 Z M49.1645,197.0002 C49.9895,197.0002 50.6585,197.6692 50.6585,198.4942 C50.6585,199.3192 49.9895,199.9882 49.1645,199.9882 C48.3395,199.9882 47.6705,199.3192 47.6705,198.4942 C47.6705,197.6692 48.3395,197.0002 49.1645,197.0002 Z M6.4014,197.0002 C7.2264,197.0002 7.8954,197.6692 7.8954,198.4942 C7.8954,199.3192 7.2264,199.9882 6.4014,199.9882 C5.5764,199.9882 4.9074,199.3192 4.9074,198.4942 C4.9074,197.6692 5.5764,197.0002 6.4014,197.0002 Z M134.6904,197.0002 C135.5154,197.0002 136.1844,197.6692 136.1844,198.4942 C136.1844,199.3192 135.5154,199.9882 134.6904,199.9882 C133.8654,199.9882 133.1964,199.3192 133.1964,198.4942 C133.1964,197.6692 133.8654,197.0002 134.6904,197.0002 Z M198.835,197.0002 C199.66,197.0002 200.329,197.6692 200.329,198.4942 C200.329,199.3192 199.66,199.9882 198.835,199.9882 C198.01,199.9882 197.341,199.3192 197.341,198.4942 C197.341,197.6692 198.01,197.0002 198.835,197.0002 Z M177.4536,197.0002 C178.2786,197.0002 178.9476,197.6692 178.9476,198.4942 C178.9476,199.3192 178.2786,199.9882 177.4536,199.9882 C176.6286,199.9882 175.9596,199.3192 175.9596,198.4942 C175.9596,197.6692 176.6286,197.0002 177.4536,197.0002 Z M-57.7432,197.0002 C-56.9182,197.0002 -56.2492,197.6692 -56.2492,198.4942 C-56.2492,199.3192 -56.9182,199.9882 -57.7432,199.9882 C-58.5682,199.9882 -59.2372,199.3192 -59.2372,198.4942 C-59.2372,197.6692 -58.5682,197.0002 -57.7432,197.0002 Z M220.2165,197.0002 C221.0415,197.0002 221.7105,197.6692 221.7105,198.4942 C221.7105,199.3192 221.0415,199.9882 220.2165,199.9882 C219.3915,199.9882 218.7225,199.3192 218.7225,198.4942 C218.7225,197.6692 219.3915,197.0002 220.2165,197.0002 Z M156.072,197.0002 C156.897,197.0002 157.566,197.6692 157.566,198.4942 C157.566,199.3192 156.897,199.9882 156.072,199.9882 C155.247,199.9882 154.578,199.3192 154.578,198.4942 C154.578,197.6692 155.247,197.0002 156.072,197.0002 Z M-36.3616,197.0002 C-35.5366,197.0002 -34.8676,197.6692 -34.8676,198.4942 C-34.8676,199.3192 -35.5366,199.9882 -36.3616,199.9882 C-37.1866,199.9882 -37.8556,199.3192 -37.8556,198.4942 C-37.8556,197.6692 -37.1866,197.0002 -36.3616,197.0002 Z M-100.5059,197.0002 C-100.1129,197.0002 -99.7279,197.1592 -99.4499,197.4382 C-99.1709,197.7162 -99.0119,198.1012 -99.0119,198.4942 C-99.0119,198.8872 -99.1709,199.2722 -99.4499,199.5502 C-99.7279,199.8292 -100.1129,199.9882 -100.5059,199.9882 C-100.8989,199.9882 -101.2839,199.8292 -101.5619,199.5502 C-101.8409,199.2722 -101.9999,198.8872 -101.9999,198.4942 C-101.9999,198.1012 -101.8409,197.7162 -101.5629,197.4382 C-101.2839,197.1592 -100.8989,197.0002 -100.5059,197.0002 Z" id="Combined-Shape" transform="translate(134.690900, 236.995600) rotate(-270.000000) translate(-134.690900, -236.995600) "></path>
            </g>
        </g>
    </g>
</svg>