<?xml version="1.0" encoding="UTF-8"?>
<svg width="124px" height="42px" viewBox="0 0 124 42" version="1.1" xmlns="http://www.w3.org/2000/svg" xmlns:xlink="http://www.w3.org/1999/xlink">
    <!-- Generator: Sketch 52.4 (67378) - http://www.bohemiancoding.com/sketch -->
    <title>Group 34</title>
    <desc>Created with Sketch.</desc>
    <g id="Symbols" stroke="none" stroke-width="1" fill="none" fill-rule="evenodd">
        <g id="Footer" transform="translate(-1273.000000, -186.000000)">
            <g id="Group-26">
                <g id="Group-22">
                    <g id="Group-25" transform="translate(1146.000000, 52.000000)">
                        <g id="Group-7" transform="translate(2.000000, 135.000000)">
                            <g id="Group-34" transform="translate(126.000000, 0.000000)">
                                <path d="M111.994189,-2.84217094e-14 L9.69700151,-2.84217094e-14 C9.32125121,-2.84217094e-14 8.95547658,-2.84217094e-14 8.58305151,0.00324324324 C8.27048046,0.00324324324 7.96123464,0.00972972973 7.64866359,0.0162162162 C6.97031792,0.0324324324 6.2853218,0.0713513514 5.61030135,0.191351351 C4.92863045,0.304864865 4.29683791,0.505945946 3.67834627,0.810810811 C3.0698303,1.11567568 2.51119268,1.51135135 2.03236044,1.98162162 C1.54355253,2.45189189 1.14120044,2.99351351 0.831954621,3.59027027 C0.516058351,4.19351351 0.316544918,4.81297297 0.196836858,5.47783784 C0.0738035742,6.13297297 0.0339008875,6.79783784 0.0139495442,7.4627027 C0.00729909643,7.76756757 0.00397387254,8.07243243 0.000648648649,8.37405405 L0.000648648649,9.4572973 L0.000648648649,30.2172973 L0.000648648649,31.3005405 C0.00397387254,31.6086486 0.00729909643,31.907027 0.0139495442,32.2151351 C0.0339008875,32.88 0.0738035742,33.5448649 0.196836858,34.2 C0.316544918,34.8648649 0.516058351,35.4875676 0.831954621,36.0908108 C1.14120044,36.6810811 1.54355253,37.2259459 2.03236044,37.6897297 C2.51119268,38.1632432 3.0698303,38.5589189 3.67834627,38.8605405 C4.29683791,39.1686486 4.92863045,39.3664865 5.61030135,39.4832432 C6.2853218,39.6032432 6.97031792,39.6421622 7.64866359,39.6616216 C7.96123464,39.6681081 8.27048046,39.6713514 8.58305151,39.6713514 L9.69700151,39.6713514 L111.994189,39.6713514 L113.094838,39.6713514 C113.407409,39.6713514 113.723306,39.6681081 114.035877,39.6616216 C114.717548,39.6421622 115.399218,39.6032432 116.067588,39.4832432 C116.749259,39.3664865 117.381052,39.1686486 118.009519,38.8605405 C118.61471,38.5589189 119.173348,38.1632432 119.655505,37.6897297 C120.137663,37.2259459 120.540015,36.6810811 120.855911,36.0908108 C121.165157,35.4875676 121.371321,34.8648649 121.484378,34.2 C121.610737,33.5448649 121.647314,32.88 121.673916,32.2151351 C121.677241,31.907027 121.677241,31.6086486 121.677241,31.3005405 C121.683892,30.9405405 121.683892,30.5805405 121.683892,30.2172973 L121.683892,9.4572973 C121.683892,9.09405405 121.683892,8.73405405 121.677241,8.37405405 C121.677241,8.07243243 121.677241,7.76756757 121.673916,7.4627027 C121.647314,6.79783784 121.610737,6.13297297 121.484378,5.47783784 C121.371321,4.81297297 121.165157,4.19351351 120.855911,3.59027027 C120.540015,2.99351351 120.137663,2.45189189 119.655505,1.98162162 C119.173348,1.51135135 118.61471,1.11567568 118.009519,0.810810811 C117.381052,0.505945946 116.749259,0.304864865 116.067588,0.191351351 C115.399218,0.0713513514 114.717548,0.0324324324 114.035877,0.0162162162 C113.723306,0.00972972973 113.407409,0.00324324324 113.094838,0.00324324324 C112.732389,-2.84217094e-14 112.359964,-2.84217094e-14 111.994189,-2.84217094e-14" id="Fill-1" stroke="#FFFFFF"></path>
                                <path d="M95.3827713,30.1676303 L95.3827713,18.1081888 L97.1822527,18.1081888 L97.1822527,30.1676303 L95.3827713,30.1676303 Z M111.595601,22.4523324 L113.596816,22.4523324 L108.647814,33.8245745 L106.770452,33.8245745 L108.601154,29.7597021 L105.389878,22.4523324 L107.328995,22.4523324 L109.469846,27.6809495 L109.531944,27.6809495 L111.595601,22.4523324 Z M101.387104,28.7976915 C102.426652,28.7976915 103.388319,28.0065372 103.527955,26.8894521 C103.046949,26.6568404 102.674702,26.4863271 101.883548,26.4863271 C100.999074,26.4863271 99.9753085,26.8431356 99.9753085,27.7739255 C99.9753085,28.5029814 100.79734,28.7976915 101.387104,28.7976915 Z M101.604277,22.1888431 C103.66759,22.1888431 105.265681,23.3834654 105.265681,25.5243165 L105.265681,30.1477314 L103.527955,30.1477314 L103.527955,29.2169415 L103.465856,29.2169415 C103.046949,29.8530213 102.379992,30.3957819 101.169931,30.3957819 C99.5872793,30.3957819 98.175484,29.356234 98.175484,27.7430479 C98.175484,25.9741011 99.9286489,25.0278723 101.650593,25.0278723 C102.504189,25.0278723 103.202024,25.3071436 103.527955,25.4934388 L103.527955,25.369242 C103.512516,24.3763537 102.565944,23.8178112 101.635154,23.8178112 C100.968197,23.8178112 100.332117,24.034984 99.9907473,24.7019415 L98.3926569,24.034984 C98.9511995,22.7628245 100.300896,22.1888431 101.604277,22.1888431 Z M90.4804282,23.9203936 C91.826008,23.9203936 92.5904016,22.7882128 92.5904016,21.8536489 C92.5904016,20.9009016 91.826008,19.7869043 90.4804282,19.7869043 L87.9203271,19.7869043 L87.9203271,23.9203936 L90.4804282,23.9203936 Z M90.4337686,18.1085319 C92.4291516,18.1085319 94.389883,19.5529202 94.389883,21.8536489 C94.389883,24.1543777 92.4291516,25.598766 90.4337686,25.598766 L87.9203271,25.598766 L87.9203271,30.1676303 L86.1208457,30.1676303 L86.1208457,18.1085319 L90.4337686,18.1085319 Z M66.9149415,28.8000931 C68.1428431,28.8000931 69.1062261,27.7588298 69.1062261,26.3291941 C69.1062261,24.8837766 68.1428431,23.8270745 66.9149415,23.8270745 C65.6719441,23.8270745 64.6303378,24.8837766 64.6303378,26.3291941 C64.6303378,27.7588298 65.6719441,28.8000931 66.9149415,28.8000931 Z M68.9820293,23.127867 L68.9820293,22.4595372 L70.6912793,22.4595372 L70.6912793,29.8259176 C70.6912793,32.8563883 68.9041489,34.0997287 66.7907447,34.0997287 C64.8015372,34.0997287 63.6048564,32.7630691 63.1540426,31.6751463 L64.7236569,31.0225984 C65.0032713,31.6909282 65.687383,32.4834548 66.7907447,32.4834548 C68.1428431,32.4834548 68.9820293,31.6442686 68.9820293,30.0746543 L68.9820293,29.4838617 L68.9199309,29.4838617 C68.5157766,29.9813351 67.7386888,30.416367 66.7595239,30.416367 C64.7082181,30.416367 62.8277686,28.6292367 62.8277686,26.3291941 C62.8277686,24.0137128 64.7082181,22.2108005 66.7595239,22.2108005 C67.7386888,22.2108005 68.5157766,22.6461755 68.9199309,23.127867 L68.9820293,23.127867 Z M71.9346197,30.1676303 L71.9346197,18.1081888 L73.7371888,18.1081888 L73.7371888,30.1676303 L71.9346197,30.1676303 Z M76.3950691,26.1892154 L80.0623059,24.6662606 C79.8605718,24.1533484 79.2543404,23.7961968 78.5393511,23.7961968 C77.6226277,23.7961968 76.3480665,24.6041622 76.3950691,26.1892154 Z M81.9894149,24.8216782 L82.1760532,25.2879309 L76.6901223,27.5567527 C77.1097154,28.3805 77.7622633,28.8000931 78.6793298,28.8000931 C79.5963963,28.8000931 80.2335053,28.3496223 80.699758,27.6658537 L82.0981729,28.598016 C81.6477021,29.2663457 80.5597793,30.416367 78.6793298,30.416367 C76.3480665,30.416367 74.6075957,28.6137979 74.6075957,26.3137553 C74.6075957,23.873734 76.3638484,22.2108005 78.4772527,22.2108005 C80.6064388,22.2108005 81.6477021,23.9049548 81.9894149,24.8216782 Z M38.2834601,23.4699229 L44.1423245,23.4699229 C44.204766,23.7804149 44.2356436,24.1533484 44.2356436,24.5575027 C44.2356436,25.8629415 43.8781489,27.4792154 42.7281277,28.6292367 C41.6093271,29.7946968 40.1793484,30.416367 38.2834601,30.416367 C34.7712979,30.416367 31.8183644,27.5567527 31.8183644,24.0445904 C31.8183644,20.5324282 34.7712979,17.6728138 38.2834601,17.6728138 C40.226008,17.6728138 41.6093271,18.4344628 42.6505904,19.4290665 L41.4226888,20.656625 C40.6768218,19.9574176 39.6667793,19.4136277 38.2834601,19.4136277 C35.719242,19.4136277 33.7145957,21.4803723 33.7145957,24.0445904 C33.7145957,26.6088085 35.719242,28.6758963 38.2834601,28.6758963 C39.9463936,28.6758963 40.8943378,28.0075665 41.5005691,27.4016782 C41.9976995,26.9042048 42.3239734,26.1892154 42.4485133,25.2103936 L38.2834601,25.2103936 L38.2834601,23.4699229 Z M48.9705612,28.8000931 C50.2135585,28.8000931 51.2860426,27.7746117 51.2860426,26.3137553 C51.2860426,24.837117 50.2135585,23.8270745 48.9705612,23.8270745 C47.7272207,23.8270745 46.6547367,24.837117 46.6547367,26.3137553 C46.6547367,27.7746117 47.7272207,28.8000931 48.9705612,28.8000931 Z M48.9705612,22.2108005 C51.239383,22.2108005 53.0886117,23.9358324 53.0886117,26.3137553 C53.0886117,28.6758963 51.239383,30.416367 48.9705612,30.416367 C46.7013963,30.416367 44.8521676,28.6758963 44.8521676,26.3137553 C44.8521676,23.9358324 46.7013963,22.2108005 48.9705612,22.2108005 Z M57.9545878,28.8000931 C59.1979282,28.8000931 60.2700691,27.7746117 60.2700691,26.3137553 C60.2700691,24.837117 59.1979282,23.8270745 57.9545878,23.8270745 C56.7112473,23.8270745 55.6391064,24.837117 55.6391064,26.3137553 C55.6391064,27.7746117 56.7112473,28.8000931 57.9545878,28.8000931 Z M57.9545878,22.2108005 C60.2234096,22.2108005 62.0729814,23.9358324 62.0729814,26.3137553 C62.0729814,28.6758963 60.2234096,30.416367 57.9545878,30.416367 C55.6854229,30.416367 53.8361941,28.6758963 53.8361941,26.3137553 C53.8361941,23.9358324 55.6854229,22.2108005 57.9545878,22.2108005 Z M37.9698117,11.1094928 C37.9698117,11.9178013 37.7303383,12.561429 37.2510484,13.0414051 C36.7065723,13.6122987 35.9970723,13.8977455 35.12495,13.8977455 C34.2891947,13.8977455 33.5790085,13.6085247 32.9947346,13.0293971 C32.4097745,12.4499263 32.117809,11.7318492 32.117809,10.8748226 C32.117809,10.0174529 32.4097745,9.29971888 32.9947346,8.72059122 C33.5790085,8.14112048 34.2891947,7.85155665 35.12495,7.85155665 C35.5393968,7.85155665 35.9360032,7.93252473 36.3127106,8.09411782 C36.6894181,8.25605399 36.9920191,8.47116835 37.2181122,8.74083324 L36.709317,9.24997154 C36.326091,8.79195293 35.7984261,8.56311516 35.12495,8.56311516 C34.5152878,8.56311516 33.9886521,8.77685718 33.5440138,9.20571356 C33.0993755,9.63422686 32.8770564,10.1903678 32.8770564,10.8748226 C32.8770564,11.5592774 33.0993755,12.1154184 33.5440138,12.5442747 C33.9886521,12.972788 34.5152878,13.1865301 35.12495,13.1865301 C35.7709793,13.1865301 36.309966,12.9714157 36.7412239,12.5405008 C37.0211814,12.2595141 37.1831176,11.8690832 37.2263463,11.368179 L35.12495,11.368179 L35.12495,10.6727455 L37.9293277,10.6727455 C37.9564314,10.824046 37.9698117,10.969171 37.9698117,11.1094928 Z M42.4160918,8.69221809 L39.7801689,8.69221809 L39.7801689,10.5273803 L42.1570625,10.5273803 L42.1570625,11.2224707 L39.7801689,11.2224707 L39.7801689,13.057633 L42.4160918,13.057633 L42.4160918,13.7688484 L39.0370465,13.7688484 L39.0370465,7.98100266 L42.4160918,7.98100266 L42.4160918,8.69221809 Z M45.5521298,13.7687798 L44.8079782,13.7687798 L44.8079782,8.69214947 L43.1913612,8.69214947 L43.1913612,7.98093404 L47.1687468,7.98093404 L47.1687468,8.69214947 L45.5521298,8.69214947 L45.5521298,13.7687798 Z M50.0464761,13.7688484 L50.0464761,7.98100266 L50.7895984,7.98100266 L50.7895984,13.7688484 L50.0464761,13.7688484 Z M54.0887734,13.7687798 L53.3446218,13.7687798 L53.3446218,8.69214947 L51.7280048,8.69214947 L51.7280048,7.98093404 L55.7053904,7.98093404 L55.7053904,8.69214947 L54.0887734,8.69214947 L54.0887734,13.7687798 Z M59.5398468,12.5361779 C59.9683601,12.9698375 60.4922511,13.1866673 61.1122059,13.1866673 C61.7318176,13.1866673 62.2567378,12.9698375 62.6842218,12.5361779 C63.1130782,12.1025184 63.3278495,11.5484359 63.3278495,10.8749598 C63.3278495,10.2014838 63.1130782,9.64740133 62.6842218,9.21374176 C62.2567378,8.7797391 61.7318176,8.56325239 61.1122059,8.56325239 C60.4922511,8.56325239 59.9683601,8.7797391 59.5398468,9.21374176 C59.1120197,9.64740133 58.8972484,10.2014838 58.8972484,10.8749598 C58.8972484,11.5484359 59.1120197,12.1025184 59.5398468,12.5361779 Z M63.2345303,13.0209572 C62.6653521,13.6059173 61.9579106,13.8978827 61.1122059,13.8978827 C60.266158,13.8978827 59.5587165,13.6059173 58.9905676,13.0209572 C58.4217324,12.4363402 58.1380011,11.7210077 58.1380011,10.8749598 C58.1380011,10.028912 58.4217324,9.31357952 58.9905676,8.7289625 C59.5587165,8.14400239 60.266158,7.8513508 61.1122059,7.8513508 C61.9534505,7.8513508 62.6588335,8.14537473 63.2307564,8.73273644 C63.80165,9.32009814 64.0870968,10.0340582 64.0870968,10.8749598 C64.0870968,11.7210077 63.8023362,12.4363402 63.2345303,13.0209572 Z M65.1307617,13.7687798 L65.1307617,7.98093404 L66.0361633,7.98093404 L68.8491181,12.4832399 L68.881025,12.4832399 L68.8491181,11.3678702 L68.8491181,7.98093404 L69.5932697,7.98093404 L69.5932697,13.7687798 L68.8168681,13.7687798 L65.873884,9.04827181 L65.8419771,9.04827181 L65.873884,10.1636415 L65.873884,13.7687798 L65.1307617,13.7687798 Z M11.0956821,10.8410747 C11.0956821,9.74018501 11.7206689,9.60435338 12.9706423,10.4335798 C21.2261344,15.3848992 25.933663,18.1894022 27.0932282,18.8470886 C28.2527933,19.5047751 28.2527933,20.3175477 27.0932282,21.2854063 C18.6809834,26.2834033 13.9734548,29.0763536 12.9706423,29.6642571 C11.9678299,30.2521607 11.3428431,29.9582089 11.0956821,28.7824018 C11.0956821,17.9224067 11.0956821,11.9419643 11.0956821,10.8410747 Z" id="Combined-Shape" fill="#FFFFFF"></path>
                            </g>
                        </g>
                    </g>
                </g>
            </g>
        </g>
    </g>
</svg>